<svg width="1920" height="71" fill="none" xmlns="http://www.w3.org/2000/svg"><g clip-path="url(#a)"><path d="M-1 33h1921v5H-1" fill="url(#b)"/><path d="M987.899 28.545a2.9 2.9 0 0 1 .633 1.073l6.601 6.832-1.553 1.566-24.621 24.571a7.695 7.695 0 0 1-1.021.798 3.996 3.996 0 0 0-.632.479c-1.884 1.856-3.74 3.756-5.609 5.657l-1.438 1.522-1.438-1.247-34.026-34.593 1.439-1.842 2.185-2.075a137.842 137.842 0 0 0 2.992-2.828c4.477-4.351 8.925-8.732 13.345-13.141 2.042-2.045 4.056-4.12 6.069-6.18 1.841-1.894 3.691-3.785 5.551-5.67L959.885 0l6.701 6.846c.275.295.507.627.691.986.076.142.163.278.259.407l20.363 20.306Z" fill="#DCE1E1"/><path d="M963.94 48.068a31.33 31.33 0 0 1-3.092 3.133 2.644 2.644 0 0 1-1.855.537 1.27 1.27 0 0 1-.934-.464 7.199 7.199 0 0 0-1.108-1.06 5.114 5.114 0 0 1-1.636-1.62 5.16 5.16 0 0 1-.765-2.18h-2.877c0 2.321 0 4.352 2.028 5.541a5.18 5.18 0 0 1 1.28 1.132l.158-.16 1.827 1.842c.819.856 1.668 1.726 2.545 2.51h.302a263.57 263.57 0 0 0 7.191-6.876 5.142 5.142 0 0 0 1.682-4.206c-.129-2.117-.158-4.351-.172-6.28v-2.321c0-3.365 0-3.365-3.279-3.394h-.446a1.585 1.585 0 0 0 0 .275V45.72a4.037 4.037 0 0 1-.849 2.35Z" fill="#000"/><path d="M971.318 42.528v1.044l.906-.16a7.149 7.149 0 0 0 2.977-.943 39.988 39.988 0 0 0 3.048-2.784 96.023 96.023 0 0 0 2.718-2.901l1.122-1.204a1.487 1.487 0 0 0 0-.377c-.733-.842-1.668-1.755-2.488-2.568l-.978-.957-.863-.841-.1-.102a24.614 24.614 0 0 1-1.841-1.958 2.885 2.885 0 0 0-.604-.566h-.949l-.273-.203c-.35-.268-.77-.43-1.208-.464h-2.129l-5.047-.13h-4.128a9 9 0 0 0-3.322.188.228.228 0 0 0 0 .116l-.201.566c0 .537.072 1.175.129 1.784.058.61.087.812.115 1.16.086.103.182.195.288.276h.431c2.172 0 4.631.116 7.047.116 1.74 0 3.308 0 4.775-.087h.23c.82.04 1.621.27 2.339.673a5.366 5.366 0 0 1 1.802 1.648c.322.394.678.758 1.065 1.088a1.447 1.447 0 0 1 .474 1.015 1.271 1.271 0 0 1-.388 1.102 14 14 0 0 0-.906 1.016c-.273.333-.676.797-.992 1.102a4.166 4.166 0 0 1-2.143 1.29 1.676 1.676 0 0 0-.806.262 3.08 3.08 0 0 0 0 .9c-.1.231-.1.55-.1.899ZM943.764 29.734c-.288.29-2.301 1.523-2.56 1.886a12.105 12.105 0 0 1-1.956 1.987c-1.438 1.233-1.538 1.61-1.538 1.668 0 .624 1.121 1.654 1.927 2.408.359.334.719.667 1.049 1l.389.262.776.74a22.228 22.228 0 0 1 1.625 1.682 5.996 5.996 0 0 0 2.389 1.813c.936.39 1.955.536 2.961.42 1.208 0 2.488-.086 4.027-.086H959.684c.718.048 1.44-.01 2.142-.174.19-.861.253-1.746.187-2.626a2.637 2.637 0 0 0 0-.377h-7.981c-1.898 0-3.408 0-4.775.102a5.483 5.483 0 0 1-2.527-.604 5.539 5.539 0 0 1-1.974-1.702 11.42 11.42 0 0 0-.82-.856 1.455 1.455 0 0 1-.445-1.117 1.292 1.292 0 0 1 .359-1.03 102.534 102.534 0 0 1 4.056-3.176c.239-.179.5-.325.776-.436h.086c0-1.058 0-2.16-.1-3.234-2.502.174-3.135-.334-4.904 1.45Z" fill="#000"/><path d="M967.478 23.73a7.512 7.512 0 0 0-.791-3.206 14.421 14.421 0 0 0-3.192-2.988 79.113 79.113 0 0 1-1.884-1.45 11.15 11.15 0 0 0-2.575-2.016s-.186.13-.345.275c-.158.145-.517.595-.877 1.03l-2.588 3.002c-1.295 1.45-2.402 2.814-3.466 4.134-.289.37-.459.82-.489 1.291v1.842s.345 5.73.345 8.5c0 3.48 0 3.48 2.876 3.48h.791V26.936c.003-.558.047-1.116.129-1.668v-.305a4.549 4.549 0 0 1 0-.522 4.905 4.905 0 0 1 1.611-2.683c.273-.29.575-.551.863-.827.419-.374.817-.771 1.194-1.19l.143-.13c.197-.142.434-.218.676-.217a1.89 1.89 0 0 1 1.05.391l.518.406a4.766 4.766 0 0 1 1.888 1.81c.45.769.678 1.65.657 2.542 1.108 0 2.244 0 3.337-.073h.115c.057-.29.028-.522.014-.74Z" fill="#000"/></g><defs><linearGradient id="b" x1="1920" y1="33" x2="-1" y2="33" gradientUnits="userSpaceOnUse"><stop stop-color="#DCE1E1" stop-opacity="0"/><stop offset=".495" stop-color="#DCE1E1"/><stop offset="1" stop-color="#DCE1E1" stop-opacity="0"/></linearGradient><clipPath id="a"><path fill="#fff" transform="translate(-1)" d="M0 0h1921v71H0z"/></clipPath></defs></svg>