<svg width="51" height="50" fill="none" xmlns="http://www.w3.org/2000/svg"><g clip-path="url(#a)"><path d="M43.57 10.103C39.245 6.617 32.4 6.027 32.107 6.005a1.079 1.079 0 0 0-1.074.638c-.017.025-.165.37-.33.905 2.86.485 6.376 1.458 9.557 3.435a1.09 1.09 0 0 1-.574 2.015 1.09 1.09 0 0 1-.573-.166C33.644 9.436 26.816 9.266 25.5 9.266c-1.316 0-8.148.17-13.613 3.566-.51.319-1.18.162-1.494-.348a1.09 1.09 0 0 1 .348-1.501c3.18-1.972 6.696-2.95 9.558-3.43-.166-.54-.315-.88-.327-.91a1.072 1.072 0 0 0-1.079-.638c-.293.022-7.137.612-11.523 4.145C5.08 12.27.5 24.666.5 35.383c0 .19.05.374.144.54 3.16 5.56 11.783 7.013 13.748 7.077h.035c.348 0 .675-.166.878-.446l1.988-2.738c-5.363-1.386-8.102-3.74-8.259-3.88a1.085 1.085 0 0 1-.093-1.535 1.087 1.087 0 0 1 1.533-.098c.063.06 5.107 4.344 15.026 4.344 9.935 0 14.98-4.302 15.03-4.344a1.087 1.087 0 0 1 1.436 1.632c-.157.14-2.896 2.495-8.259 3.881l1.987 2.738c.204.28.531.446.88.446h.033c1.966-.064 10.59-1.517 13.748-7.078.094-.165.145-.348.145-.54 0-10.716-4.581-23.111-6.93-25.279ZM18.436 31.03c-2.102 0-3.805-1.947-3.805-4.353 0-2.406 1.703-4.353 3.805-4.353 2.101 0 3.804 1.947 3.804 4.353 0 2.406-1.703 4.353-3.804 4.353Zm14.13 0c-2.102 0-3.804-1.947-3.804-4.353 0-2.406 1.702-4.353 3.804-4.353s3.804 1.947 3.804 4.353c0 2.406-1.702 4.353-3.804 4.353Z" fill="#fff"/></g><defs><clipPath id="a"><path fill="#fff" transform="translate(.5)" d="M0 0h50v50H0z"/></clipPath></defs></svg>