<svg width="51" height="50" fill="none" xmlns="http://www.w3.org/2000/svg"><path d="M25.5 3c-12.13 0-22 9.931-22 22.138C3.5 36.214 11.633 45.39 22.2 47V30.673h-4.4c-.607 0-1.1-.495-1.1-1.107v-3.32c0-.613.493-1.108 1.1-1.108h4.4v-4.02c0-5.259 2.67-8.156 7.517-8.156 1.965 0 3.515.138 3.58.143.567.051 1.003.53 1.003 1.102v3.736c0 .612-.493 1.107-1.1 1.107H31a2.21 2.21 0 0 0-2.2 2.214v3.874h4.4c.316 0 .616.136.825.374.209.24.306.556.267.87l-.412 3.321c-.07.554-.538.97-1.093.97H28.8V47c10.567-1.61 18.7-10.786 18.7-21.862C47.5 12.931 37.63 3 25.5 3Z" fill="#fff"/></svg>