<svg width="34" height="32" fill="none" xmlns="http://www.w3.org/2000/svg"><path d="M.776 0v15.567L16.989 31.78l16.235-16.16V0H.776Zm19.477 20.555c-.678.668-1.67 1.756-2.488 2.66a.95.95 0 0 1-1.347 0l-.56-.592-2.822-2.822c-.194-.205-.42-.42-.658-.679l-.28-.312-1.077-1.078-.55-.581c-.775-.82-1.54-1.638-2.316-2.446l-.57-.603c-.14-.151-.28-.291-.41-.442-.13-.15-.636-.937-.636-.937a10.4 10.4 0 0 1-.215-1.077c.038-.61.038-1.222 0-1.832V5.645l.162-.194h1.077c.862-.065 1.831-.065 2.672-.065 1.077 0 1.928 0 2.747.14a4.89 4.89 0 0 1 1.799.938c.161.129.334.237.506.355-.14.162-.302.323-.485.507-.183.183-.312.312-.506.538-.194.226-.355.41-.42.41s-.172 0-.506-.248a2.725 2.725 0 0 0-1.606-.42h-.99l-.906.054a.819.819 0 0 0-.7.323.894.894 0 0 0-.248.69c.027.34.027.682 0 1.023a3.598 3.598 0 0 0 .862 3.048l.119.108c.721.646 1.476 1.38 2.294 2.155.819.775 1.82 1.842 2.661 2.725l.657.69.162.161 1.444 1.53.517-.517 2.316-2.37.215.01.162.151.226.216c1.314 1.314 1.314 1.314-.302 2.952Zm5.925-5.958-.075.065-.15.14-1.423 1.26-.7.636-.334.323a.905.905 0 0 1-1.174-.215l-.302-.302-1.325-1.336-.194-.204c-.71-.722-1.4-1.433-2.154-2.155l-.076-.075c.051-.067.109-.129.173-.184a5.87 5.87 0 0 1 1.314-1.152c.402.259.765.575 1.077.937l.259.259 1.411 1.41.614.626 1.444-1.196a3.437 3.437 0 0 0 .678-2.941 4.784 4.784 0 0 1 0-1.024.926.926 0 0 0-.215-.667 1.863 1.863 0 0 0-1.078-.615c-.979-.07-1.961-.07-2.94 0a2.65 2.65 0 0 0-1.498.722c-1.584 1.562-3.437 3.394-5.246 5.279-.044.046-.09.09-.14.13l-.205-.205c-1.508-1.541-1.508-1.541 0-3.135L14.996 9.9c.905-.915 1.929-1.96 2.866-3.016A3.415 3.415 0 0 1 20.63 5.71c2.38 0 4.556.086 6.614.183 0 0 .119.118.15.14v2.37s.12 2.467.216 2.855c.063.232.095.47.097.71a3.801 3.801 0 0 1-1.53 2.63Z" fill="#fff"/></svg>