<svg width="1920" height="108" fill="none" xmlns="http://www.w3.org/2000/svg"><mask id="a" style="mask-type:alpha" maskUnits="userSpaceOnUse" x="0" y="0" width="1920" height="108"><path fill="#D9D9D9" d="M0 0h1920v107.729H0z"/></mask><g filter="url(#b)" fill-rule="evenodd" clip-rule="evenodd" fill="#000" fill-opacity=".7" mask="url(#a)"><path d="M335.285 111.596c6.959-.905 6.692.206 11.465-.86-1.524-2.521-10.667-2.194-11.465.86ZM410.08 111.502c5.009 1.303 10.941.109 15.833.157-2.43-1.833-13.249-1.245-15.833-.157ZM1191.19 116.456c-14.18 2.782-10.91-3.17 0 0ZM157.01 94.103c2.181.856 10.928 1.639 13.016-1.68-4.51.511-9.403.602-13.016 1.68ZM713.727 100.592c-.767-.704-1.532-1.546-1.392-2.798-3.347-.033-4.261 1.489-8.633.889 2.048 1.412 5.647 2.004 10.025 1.909ZM1083.47 98.687c3.87-1.493 8.22 1.891 8.64-2.698-3.6.382-8.62-.086-8.64 2.698ZM462.017 89.747c-5.544.92-12.601-1.795-14.417-.143-.926 2.914 15.293 3.075 14.417.143ZM1390 96.156c4.61 3.247 7.36-2.572 14.43-.832-.12-1.81-4.76-.742-4.36-2.826-3.88 2.884-5.55 1.754-10.07 3.658ZM-52.885 70.867c5.273.61 7.728-.48 10.056-1.71-1.152-.846-1.527-2.102-1.384-3.771-4.64.65-7.487 2.431-8.672 5.481ZM-71.518 66.925c4.894-.23 7.867-1.592 11.48-2.67-1.012-2.098-1.247-4.745-2.776-6.57-5.93 1.055-8.917 4.088-8.703 9.1v.14ZM2008.69 81.129c-4.34-4.22-20.2-1.175-21.58-4.808-.32 7.235 12.46 2.49 21.58 4.808ZM1482.24 73.13c2.58-.531 5.93-.359 7.23-1.738.02-2.783-5-2.416-8.6-2.869-.01.835 1.79.714 2.82 1.002-1.17.824-1.56 2.073-1.45 3.744v-.14ZM-113.137 56.352c5.915.755 5.343-7.602 10.079-4.493 2.353-4.152-15.02-4.881-14.432 1.666 3.868-.657 2.815 1.977 4.353 2.827ZM-90.088 55.606c2.978-1.919 4.116.459 8.625.086 2.22-3.736 6.874-6.056 15.88-5.41-3.689-5.187-10.418-1.078-20.065-2.009-1.821 2.21-3.642 4.418-4.44 7.333ZM2043.38 74.93c1.67-.122 1.17-1.658 1.44-2.77 4.88 1.163 2.3 1.833 8.61 1.06 1.42.015 1.15 1.125 1.4 1.824 5.18-3.29-7.18-3.412-11.42-3.871l-.03 3.757ZM-127.452 44.24l-.024 2.784c2.042 2.108 3.485-1.08 4.368 1.017 3.089.17.673-3.333 1.456-4.578-2.446-.024-4.507.094-5.801.917l.001-.14ZM1962.85 67.73c3.89-3.72-10.4-2.608-12.98-1.938 1 2.655 11.85-.718 12.98 1.938ZM2103.98 47.833c-1.27-1.683-4.48-2.132-8.6-1.895 1.01 2.098 6.66 3.128 8.6 1.895ZM2069.69 23.414c.51 1.258 2.56 1.417 2.81 2.812 1.42.014 1.17-1.102 1.43-1.795 1.92 1.132 2.32.44 4.38.043-2.42-2.808-3.85-1.152-8.62-1.06ZM2084.24 7.83c3.75-1.215 3.39-4.42-2.8-3.785 1.92 2.246-.79 2.08 2.8 3.786ZM2131.64 5.516c-2.72 1.644-9.53.602-14.43.832-3.87.797 15.81 2.8 14.43-.832ZM2133.18 5.532c2.43 2.111 10.94.386 15.83 1.13-2.43-2.111-10.94-.386-15.83-1.13ZM-5.721-55.323c1.802.017.634 1.12-.009.974 5.774 2.284 8.13-2.286 11.465-.86.641.284-2.594 2.2-4.392 1.765 3.598.732 7.578 2.024 11.456.114-.377-1.118-4.237-1.295-4.376-.044-1.929-.297-1.139-2.377-1.384-3.772-5.293 1.757-8.619-.78-15.833-.156l-.024 2.783c1.672.156 2.576-.114 2.84-.946l.257.142ZM715.044-53.751c8.384-1.866 16.463 1.694 21.649-2.57-8.624-.085-15.336 1.937-23.033-1.202 1.152.847 1.527 2.103 1.384 3.772ZM315.118-59.522c5.545-1.059.407-2.362-1.384-3.772-2.32.395-1.312 2.91-5.808 1.752-.664 2.499 7.859-.618 7.194 1.88l-.002.14ZM693.514-65.1c.505 1.12 2.554 2.392 2.823 1.003 17.502.73 10.699-1.564-2.823-1.002ZM1105.04-61.023c-2.31-.718-2.16-2.944-5.77-2.84-.26.832.51.84 1.41.988-.27 1.11-2.58.81-4.39.93-4.38 1.349 6.18.897 8.62 1.06l.13-.138ZM794.319-65.91c4.88 1.44 10.036.656 15.833.157 8.747.782 18.547-1.07 4.385-.931-7.08-.07-15.185-.707-20.089.775l-.129-.001ZM998.61-64.86c-9.014.328-10.565 1.008-21.634.76-1.809.817 20.959 2.851 21.634-.76ZM1034.52-63.53c4.03-4.971-11.47.86-14.41-1.953-2.99 3.729 14.54 1.397 14.41 1.952ZM1195.68-61.934c1.28.152 1.42-.404 1.42-.96 1.56-2.073 9.01-.329 13.01-.846-2.28-4.476-6.04-1.312-14.4-1.952-.02 2.505-2.46 1.785-.03 3.758ZM883.539-66.836c-1.012-2.097-8.106-.497-11.448-1.087 1.642 3.774 6.434.342 11.448 1.087ZM1382.72-61.056c-.9-.844-3.32-3.373 1.44-2.77-1.78-2.94-2.96-.446-7.19-1.88-.68 3.195.34 5.293 5.75 4.65ZM899.38-67.653c4.358 2.27 12.355.4 14.417.143 27.29.27-6.031-2.287-14.417-.143ZM1220.17-66.285c-3.76 3.303-4.88-.883-8.63.89 1.14 2.098 9.63 3.157 8.63-.89ZM903.659-71.23c1.392 2.798 4.895-.368 5.801-.916-8.085-3.003-23.95.598-4.377-.043.251.837-.522.83-1.424.96ZM1082.06-68.627c.27-.833-.51-.84-1.41-.988l.02-1.81c-4.39 1.21-10.95.866-17.26.804 5.12 3.391 10.56-.174 18.65 1.994ZM1241.7-69.83c2.43 2.112 10.94.387 15.83 1.132-3.2-3.094-7.98-.497-15.83-1.131ZM1040.39-72.659c1.91 2.107 10.03.378 14.41 1.117-4.88-2.136-8.23-1.195-14.41-1.117ZM1060.48-73.434c2.94 2.117 11.96.397 17.24 1.145-2.95-2.117-11.97-.397-17.24-1.145ZM933.957-76.497c-3.226.803-6.318 1.051-8.625-.085-6.582 1.883 10.911 3.727 8.625.085ZM1079.27-73.248c1.28.152 1.42-.403 1.42-.96l.02-1.81c-2.07.955-3.49.94-4.37-1.017 2.21-1.927 3.47.73 7.22-.903-10.27-3.163-12.11 1.272-21.64 1.596.78-.828 4-1.353 1.43-1.796-1.16.128-1.41-.431-1.41-.988-1.67.123-1.17 1.659-1.44 2.77l-4.38-.044c10.02 3.44 17.53-1.775 23.02 3.012l.13.14ZM1195.78-73.903c-1.78-2.523-14.96 2.914-10.02-2.883-12.61-.403-21.13 2.574-2.85 1.781.25 1.951-5.15.367-7.21.903 2.16 2.527 14.66.98 20.08.199ZM1139.66-74.459c-3.98-2.266-11.47 1.139-18.67-.185-1.43 1.934 14.8.843 18.67.185ZM1161.29-75.219c-5-1.998-9.92.876-20.08-.199 1.77 3.219 14.27 1.812 20.08.199ZM1227.47-76.373c-9.15.745-18.68 1.346-28.85 1.524 8.22 2.03 19.04 1.859 28.85-1.524ZM1404.34-75.595c3.21 1.145 4.39-.93 10.05-.875-3.33-2.399-7.44-3.275-11.45-1.088.77.843 3.98 1.432 1.4 1.824v.139ZM830.367-81.28c-19.707 1.196-6.405-3.683 0 0ZM1587.14-75.594c-1.65-2.939-5.65-.89-14.4-1.952 3.46 2.4 12.33 3.741 14.4 1.952ZM124.081-90.086c1.421-.543 1.563-2.073 4.392-1.766-2.549-2.948-4.372-.6-10.032-1.074-5.424 2.034 8.889-.747 5.769 2.84h-.129ZM390.159-88.425c.932-3.61-7.842-1.191-11.441-1.923-.023 2.784 5.267 1.305 11.441 1.923ZM1331.01-80.915c-1.79-1.548-6.81-1.18-7.18-3.829 1.3-1.379 2.19.3 5.8-.916 2.69 2.392 6.81 2.016 11.45 1.087-.77-.703-1.53-1.546-1.39-2.797-4.63-.325-19.95-.198-25.88.718-1.83 2.904 4.63.741 2.8 3.785 2.08-2.484 3.61-1.077 7.21.072-.66.968-7.87 2.01-7.22.903-3.77 3.72 10.42.938 14.41 1.117v-.14ZM1647.55-78.753c-5.03.646-6.04-1.73-8.63-.086.25 1.394 9.37 3.851 8.63.086ZM1377.09-80.458c1.68-.958 2.6-2.619 7.22-1.738 3.88-1.632-8.36-.779-11.44-1.088-.54 2.222 6.57-.491 4.35 2.827l-.13-.001ZM229.038-94.614c1.157.15 1.419-.404 1.424-.96 10.3-.177 16.207 1.552 24.466-.732-7.862 1.035-22.765-2.453-25.889 1.553l-.001.139ZM1348.29-84.501c3.09.448 2.71-1.226 2.85-2.756-3.33-.868-4.63-.046-10.03-1.073.37 2.508 8.11.358 7.18 3.829ZM1132.57-88.448c2.94 2.117 11.96.397 17.24 1.145-2.95-2.117-11.97-.397-17.24-1.145Z"/><path d="M-127.175 11.813c5.668-.5 6.289 2.15 7.169 4.664-2.189.118-5.275-.33-5.801.917 5.647 2.005 11.839.535 14.37 5.71-.233-2.925 5.808-1.752 7.24-3.686.626 2.094-4.548 4.965-1.463 5.552 1.929.159 2.872-4.703 4.392-1.765-1.571 3.046 2.144 5.17-1.495 9.17 9.654.097 17.374.59 25.906-3.5.358 3.204 7.708 1.885 8.585 4.678.403-1.945 3.877-1.771 5.816-2.726-.019 2.226 2.422 2.807 1.369 5.58-5.134-1.86-7.222 1.46-14.426.832-.886-1.679 4.281-3.855.04-4.593-.05 5.846-9.573 5.473-11.543 10.046 3.362-1.776 1.542.294 4.368 1.018 1.072-5 10.295.38 11.488-3.644-1.802-.018-1.941 1.233-4.385.93 4.15-3.577 10.726-4.765 14.441-2.64-1.262-2.935 3.75-1.912 4.409-3.714.01-1.253-2.568-.86-2.817-1.838 9.872-10.34 35.707-5.63 51.825-8.672-.803 3.61-.796 2.775-.055 6.401-3.875 1.632-2.797-4.064-4.368-1.017 2.03 3.5 10.814-.032 15.81 2.94-7.25 4.8-9.117-2.735-13.017 1.68-4.63-.602-2.687-1.975-4.353-2.826-.912 1.244-5.535-.055-5.808 1.752 3.606-.104 5.918.476 7.193 1.88-11.969-.397-21.994-2.305-31.698 3.444 2.307 1.276 4.871 2.415 5.754 4.65-14.932-.147-22.481 9.52-35.992 8.83 1.652 2.522-2.75 5.401-.048 5.567l7.209.072c-3.57-4.072 9.95-4.356 7.28-8.28 2.173 1.692 2.406 4.617 8.592 3.844 2.456-1.229 1.84-4.436 5.831-4.536.12 1.115.367 2.23 2.817 1.838-3.114 2.892-8.534 4.369-10.112 8.25-.504-1.257-1.66-1.547.024-2.783-2.456 1.228-5.68 1.892-5.832 4.535 7.352-1.597 4.348 3.384 8.593 3.843 9.635 2.323 11.887-5.17 17.272-2.612-3.877 1.77-8.78 2.975-8.687 7.29 8.218 2.448 12.923-5.856 14.432-1.666-4.394 2.044-4.006 1.77-7.24 3.686 1.648 2.94 4.123-.516 4.352 2.827-.656 1.525-1.8-.157-4.376-.043 1.912 2.246-3.256 4.422-.04 4.593 3.227-.943 4.763.047 8.64-1.724.349 4.457-8.136 3.12-5.848 6.484 8.888-.608 17.877-13.046 25.92-5.311-4.896.647-10.296-.241-13.032 3.629 9.531-.602 9.397.093 15.817 1.966-1.674.123-4.118-.18-4.385.93 3.864-.24 10.665 2.333 5.754 4.65-3.702-3.655-14.703 3.196-17.305 6.371 2.697.723 5.782 1.31 7.185 2.855.021-2.505 4.522-1.904 4.416-4.55 4.249-.096 9.494 3.713 12.992 1.104-.88-2.514-.77-.147-4.36-1.853 4.274-3.159 4.25-.236 10.04.1-.114-1.811-4.757-.744-4.353-2.827 3.107-2.057 4.237 1.294 8.616 1.06.105 2.784-7.489 2.57-2.88 5.538-2.706.39-6.155-2.844-5.8.917.625 2.094 7.076.488 10.031 1.074-.247-1.116-2.171-1.97 1.432-1.796 2.309.998-2.348 3.596 4.361 1.853-1.708 4.019-4.782 2.18-4.432 6.498 2.57.582 5.943-2.586 7.208.071-6.186.774-2.213 2.901-4.424 5.524 16.075 1.968 22.42-2.284 37.482-2.413 7.407-8.138 16.393-5.126 30.345-10.834-1.672-.156-4.12.099-4.368-1.017 2.574.025 8.388-2.423 10.04.099-7.977-.496-3.63 3.026-11.488 3.644 17.606 3.515 24.205-.456 38.898-2.398-2.57-.582-8.506 1.03-8.616-1.06 17.389-1.22 23.298.231 35.937-2.427-2.97 1.084-6.811-1.46-2.817-1.838 7.202.907 30.777-1.087 48.939-2.299-1.801-.157-.893-.983.015-1.809-6.058.914-20.616 2.162-23.041-.228 2.59-1.784 5.006 1.72 4.4-2.74-4.254.653-6.442.632-10.056 1.71 2.446.024 3.727.732 4.362 1.852-15.199.963-39.921 1.553-54.747 4.05 9.202-7.285 18.285-.514 27.344-6.13-15.209 2.215-22.522-.78-38.89 1.423-.245-1.394.545-3.474-1.384-3.771-2.209 2.483-5.906-1.729-7.216.902 2.57.583 5.917.477 7.193 1.881-14.186 2.922-27.404-1.941-34.506.633-1.136-2.656 2.08-2.346 1.455-4.579 5.42-1.477 6.528 4.38 8.609 1.895-2.575-.026 1.956-2.904 4.4-2.74 10.013 3.3 23.963-2.13 34.498.341-3.349.245.099 3.48 1.384 3.772 2.461-1.785 7.482-1.874 13.016-1.68-2.944-1.978.659-1.803 2.856-2.756.248 1.116-.28 2.642 1.392 2.798 4.772-1.067 15.853-2.21 20.089-.776-3.496 2.332-7.608 1.456-8.656 3.672 2.96.03 16.985.865 17.264-1.638-2.446-.024-4.507.095-5.801.917.167-4.452 14.335-5.286 14.441-2.64 4.534-3.296 7.989-.896 11.471-1.696-6.549-1.875 16.142-5.826 20.097-1.61.033-3.898 3.2 2.119 5.808-1.753-2.849 1.92-3.339-1.007-5.777-1.866 10.426.103 6.533 3.683 17.216 3.928 1.848-5.27 1.808-.678 5.793.058.525-1.248 1.686-1.515.024-2.784 4.641-.789 2.94 2.395 5.768 2.841-1.392-2.797 3.233-1.638 5.808-1.752 1.251 4.327-3.722-1.29-4.392 1.766 8.385-2.005 34.708 5.911 41.683 3.197-1.68.679-4.24-1.017-4.369-1.018 19.834-1.056 29.471 1.127 41.715-.561-1.157-.15-2.832-.028-2.824-1.002 14.895 4.462 37.728-1.018 48.891 3.268-4.896.508-13.376-1.385-15.841.817 5.273.61 14.299-1.11 17.24 1.145-.021 2.505 1.925.715 8.617 1.06 15.055.706-22.564 4.091-23.042-.228.115 1.67-1.435 2.212-4.392 1.766.391-.553-3.694-4.63-7.193-1.881 1.672.156 4.12-.099 4.368 1.017-9.417 2.273-19.535-3.812-21.64 1.595-3.462-1.704-15.016-5.437-18.657-1.159 2.453-.81 8.505-1.029 4.368 1.018-2.304-1.554-8.378 1.309-11.441-1.923 2.065-.536 7.457 1.188 7.217-.903-6.312.494-16.208-1.413-20.089.776 4.892.048 10.043-.18 11.441 1.922-17.504-.451-15.933-3.498-33.058-3.11.217 4.734-7.627 3.682-8.633.888-1.703 3.463-12.24 1.27-17.272 2.613-.347-4.597 13.899.416 15.856-2.627-6.051.08-3.472-.452-1.4-1.823-5.282.504-8.646 2.42-15.848 1.652-1.911-2.385 5.688-2.866 1.448-3.744-4.137 2.047-11.969-.397-10.073 3.659 2.707-.391 2.597-2.62 7.224-1.738-7.375 4.38-25.393 3.785-28.849 1.523 1.262 2.936-3.75 1.912-4.409 3.715 9.257 1.344 14.168-.834 18.673-.79-.429 5.007-17.277 3.17-17.264 1.639.243 1.672.875 3.07 2.8 3.785 20.114-3.697 34.098 1.87 43.146-2.356 2.816 1.838 10.405 2.609 15.824 1.131-7.077-.348 3.227-.942-1.392-2.797 4.989 3.668 10.584-3.236 17.24 1.145-6.949-.208-13.13.009-14.448 3.615 8.513-2.004 11.571 1.645 15.856-2.627-.288 3.616 6.396 4.796 8.609 1.895-1.931-.02-10.428.036-5.784-1.032 6.944.904 19.195-1.62 21.61 2.024-2.311-.72-6.323 1.746-2.847 1.78.269-1.388 3.482-.8 5.8-.916.011-1.252-.625-2.094-1.392-2.797 7.59.631 10.956-1.562 18.673-.79 1.763 4.61-11.964-.953-10.072 3.658 9.162-2.553 19.807 2.145 24.473-1.567-2.187-.16-5.28.227-5.785-1.031 6.953-.07 20.491-2.58 17.234 1.98 8.895-1.443 19.228-5.516 23.073-3.53-2.577.253-7.2-1.045-5.808 1.752 7.856-.34 9.912.099 10.017 2.883 6.698-.49 13.017-1.82 17.24 1.145-4.597-4.36 13.523-.7 14.457-4.45-9.269-.091-20.626 3.276-28.843.69 11.343-1.698 24.723-.73 37.491-3.388-1.802-.017-3.345-.311-2.817-1.837 3.604.036 5.523 1.447 5.761 3.815-3.481.522-10.417-1.216-11.465.861 10.684.106 23.273 3.293 33.097-1.482-8.495-.084-15.347 3.328-20.072-1.173 6.43.76 17.244.728 21.649-2.569-8.118.894-10.169-.1-23.05.746-.37-1.813 1.947-1.79 2.856-2.755-14.159-.14-15.334 1.657-25.882.718 4.544-4.41 8.392-2.84 14.433-1.667.008-.974-1.149-1.125-1.401-1.823 6.028 2.704 5.028-.785 8.609 1.895 3.48-.523.946-5.28 5.817-2.727-6.176-.478 25.203 3.312 17.272-2.612 14.558-1.248 32.801 3.108 43.131-.547 3.978 1.431-4.527 2.46-5.825 3.7 23.971-3.103 46.64-4.549 67.603-2.114.008-.974-1.149-1.125-1.4-1.823 4.75 1.439 17.503.451 25.873.256.248 1.116-.28 2.642 1.392 2.797.528-1.525 3.361-1.636 7.217-.902-6.312.494 5.636 3.257 7.169 4.664.667-2.777 9.924-1.294 14.432-1.667-1.158-.011-2.823-1.002-2.823-1.002 28.462-1.388 44.919 1.002 66.163.655-1.92-1.271-1.901-3.498 1.448-3.743l-.032 3.758c1.553-.96 10.315-1.847 11.456.113-17.005 1.502-41.857 2.23-60.394 2.185-33.47-.053-79.182 1.304-103.63-.052.607 4.321-19.323 1.479-27.313 2.513-1.546.124-2.466 2.342-4.4 2.74-11.475 1.975-31.134-2.396-41.739 3.345 21.108.487 44.818-2.2 61.931-1.196-1.416-.014-1.816 1.652-.015 1.81 9.532-.741 21.157-5.22 38.906-3.373.502 1.536-2.208 2.344-.024 2.783 1.931.02 3.215.45 4.369 1.018.397-1.249 2.075-1.79 1.448-3.744 2.956.586 9.406-1.02 10.032 1.074-3.235 1.916-6.297-1.315-8.64 1.724 28.107-5.011 56.253.418 89.196 1.858-1.532-1.408-1.525-2.243 1.44-2.77 6.559.76 21.892-.897 25.841 4.014 1.43-1.656-4.221-3.104.032-3.758 1.643 3.635 6.171 1.036 10.041.1-.418 3.754.497 2.093 4.361 1.852 3.465 1.287-2.598 2.758 1.384 3.772 6.21-3.696 38.565-8.665 50.362-3.259-.641-.285-3.221.386-2.84.946 5.398 1.028 4.651-1.902 7.232-2.712.506 1.119 24.721-.451 10.032 1.074-5.034 1.62-12.374 1.826-15.872 4.436 10.3-.177 19.312-.227 30.282-3.458 4.362 1.713-3.887 2.884-.032 3.757.661-2.081 7.852.078 7.232-2.712-2.572-.304-7.216.903-5.777-1.866 6.304.48 4.787-2.737 10.049-.875 3.982 1.014-7.626 3.543-.039 4.593.039-4.593 12.767-2.658 10.096-6.442 3.471.591 10.554.244 17.24 1.145 2.558 1.974-1.188 3.468 1.377 4.607 3.61-.66 12.391-3.775 5.84-5.51.504 1.258 1.661 1.548-.023 2.784-3.733-.037-5.006-1.72-7.185-2.855 5.014.745 10.836-2.677 14.417.143-3.349.245-3.368 2.472-.024 2.783-2.677-3.089.393-.831 2.832.028.011-1.252-.626-2.094-1.392-2.797 19.953.058 27.545.412 44.561-2.343 3.207 1.424-1.821 2.21 1.393 2.798 2.476-3.594 15.451-.404 20.104-2.585.472 5.016 21.222 2.298 15.833.157 26.872 3.885 51.255-2.276 77.611 1.743.267-1.11-.234-2.647 1.44-2.77 24.541 5.533 55.357.41 90.607 2.708.01-1.114-1.79-1.27-1.39-2.798 6.18-.356 1.78 2.523 4.35 2.827 5.8-.36 13.78-.56 21.66-3.543 3.2 1.423-1.82 2.208 1.39 2.797 5.41-.782 21.12-1.461 28.83.286 17.41-3.447 57.55-.544 83.46-4.741 1.9 4.194 23.72-3.106 21.58 5.781-6.95.07-11.6 1.695-15.86 3.6 16.18 4.058 28.88-6.115 46.09-1.352-1.65-2.66-.22-3.9 1.47-6.388 2.57.582 8.51-1.029 8.62 1.06-1.04 1.52-7.08-.349-5.82 2.726 6.58-1.744 4.9-1.065 8.65-2.698.97 7.247 17.01-2.337 8.6 2.869 7.34.35 9.17-3.528 13 .129-2.31-.023-5.02-.05-4.39 1.766 8.63-.61 8.5-.334 11.49-3.645 2.29 3.085 10.67 1.359 11.44 1.923-2.29-2.806 11.48-2.948 14.47-5.424.49 2.788 3.83 3.657 7.16 4.664 4.89.744 4.78-1.901 7.24-2.712-6.7.49-8.62-1.338-13-.129-.35-4.596 13.9.416 15.85-2.626l-14.41-.143c11.61-2.808 40.18-2.803 48.93-2.3 1.18-2.354 1.98-4.99 7.25-4.52 3.98 1.43-4.53 2.46-5.82 3.7 11.98-.856 25.36-.584 41.72-1.396-.37-2.37-.48-4.598 4.41-3.715.37 1.814-1.95 1.79-2.86 2.756 2.56 1.695 3.61-.66 8.63.085-1.15-1.125-1.91-2.524-1.38-4.606 5.41.053 14.29.141 11.42 3.87-.38-.838-3.85-.873-4.37-.043 2.56 1.557 4.9-.786 7.19 1.881-2.7-.027-4.77.51-5.81 1.752 12.63-.989 9.34-7.563 23.15-11.74 3.44 4.209-7.12 3.548-8.68 5.48 11.93 4.851 20.75-2.717 30.29-3.457 1 2.376 5.51 2.977 11.4 5.68-.75-1.956-4.09-2.963-1.37-4.607 4.35 2.549 7.1-3.13 11.45.114-.02 2.227-8.53 4.648-1.48 7.362-4.62-.881-4.51 1.347-5.81 2.726 2.05.577 7.47-1.04 7.2 1.046-10.6 4.627-14.17 1.39-28.85 1.523 8.33 4.537 24.43 3.304 33.07 2.137-2.45-.441.26-1.25.02-2.783-1.93-.02-4.41 3.714-5.8.917 4.13-1.351 6.21-3.975 11.49-4.48 1.77 3.776 12.34 3.185 15.83 1.131-5.64-2.978.28-3.198 4.41-4.549-2.83-.028-1.78-2.523-5.77-1.867-.01.975 1.15 1.125 1.4 1.824-3.86-.317-3.32-3.374-7.18-3.83 6.96-.487 12.37-1.408 15.82 1.967-.62-2.512 5.41-.782 5.82-2.726-4.49-2.41-7.07-1.74-13-1.103l.06-6.541c2.95 1.003 13.38.967 10.05-1.71 7.08.348 8.34 3.84 7.17 4.664 2.59-1.784 7.63-3.265 2.89-6.374 7.84 1.191 12.71 4.301 21.59 4.807-4.39.513-5.05 3.569-11.48 2.67-3.21-1.424 1.82-2.21-1.4-2.798-2.71 1.644-2.57-.582-7.2-.071-4.29 4.411 5.83 9.662-.11 11.969 5.68-1.336 2.94 2.395 5.77 2.84 4.66-2.876 6.85-2.854 8.68-6.316 10.3-.315 16.09.438 23.05-.746-1.06 3.33 5.39 2.002 7.16 5.639 3.1-.805 4.66-2.46 7.24-3.687 1.02 1.82 3.84 2.544 7.19 2.855-4.35-4.08 5.27.61 5.81-1.752-2.57-.582-5.92-.476-7.2-1.88 3.11-2.057 4.89.744 10.04.099-.02 2.505-2.46 1.785-.03 3.758-2.21 2.622-6.42-2.013-5.81 1.752 3.08 1.561 9.91.933 8.64-1.724 1.86 8.648 17.73 4.49 24.45 1.216 5.6 7.99 24.3 3.164 38.86 2.195 14.77 3.765 42.31 5.012 56.12.556 8.87 2.175 13.74 4.729 23.02 3.011 2.97-.527 4.67-3.572 7.24-3.686 3.22.032 8.96 5.934 14.39 2.926 1.05-2.355 3.51-3.862 7.25-4.521 1.4 1.684-4.27 3.02-.03 3.758 40.68-.572 90.94-6.755 133.82-7.861 5.29-1.757 11.1-3.091 17.28-3.587 14.69-.968 32.41 3.94 41.72-1.396-9.77-1.071-22.1-4.255-31.66-.314.01-1.252.66-2.08 1.44-2.769-22.41 1.17-37.32-2.318-51.7-6.08.01-1.67-.23-2.925-1.39-3.771 5.67.334 5.44-3.287 11.48-2.67 4.12.458 4.48 3.385 10.02 2.883-8.98-3.708 13.68-3.344 17.27-1.639-.86-5.715 6.06-1.331 8.65-3.672-9.25-1.901-22.78-.922-31.64-3.097 17.9-.38 37.33.648 50.31 3.282-2.34 2.621-7.46-1.605-8.64.889 6.7-.769-1.05 3.051 2.81 2.811 1.92 1.272 4.37.6 5.8-.917-1.67-.155-4.12.099-4.37-1.017 9.69-3.245 20.25-4.393 34.52-1.468-.29 4.034 2.54 4.062 8.57 5.653.02-1.253-.62-2.094-1.39-2.798 6.04 1.034 14.29.838 18.64 2.969-1.67.122-4.11-.18-4.38.93 7.95 3.559 26.51.541 33.04 4.92.14-.972-2.05-1.411.02-1.808 1.26 2.24 15.41 3.771 14.42-.832-3.72-1.846-11.52-7.073-15.8-3.914.77.007 1.67.712-.01.974.56-5.284-5.1-5.2-9.97-7.476 12.61-.292 30.6 3.922 43.05 8.778-.38-1.396-6.15-3.958-2.8-4.621 1.01 2.654 4.35 4.08 7.16 5.638-2.82-.445-7.35 2.433-4.4 2.74 1.57-2.907 8.76.087 10.04.1-3.98-.457-1.31 3.467-4.4 3.714-.25-1.394.54-3.474-1.39-3.772-1.67.123-1.55 1.377-1.44 2.77-6.18.217-13.09-4.027-17.23-1.98 9.24 3.014 19.92 3.398 25.83 4.849-2.59 2.619-8.86-2.176-10.04-.1-.01 1.253-2.58.81-2.84 1.782 4.9-1.344 12.74-.43 15.81 1.966-.24-2.23-.22-4.456 2.87-4.565 1.8.853 5.63 4.927 7.19 2.855-1.54-.294-3.46-1.565-1.4-1.823.37 1.256 3.08 1.144 4.36 1.852 2.33-2.064-.22-5.013 1.46-5.553 4.49 2.133 3.6.454 1.43-1.795 9.28-1.021 2.56 2.67 5.76 4.65-3.23 1.22-5.39-2.42-5.79-.057 3.96 2.544 12.21 1.652 5.75 4.65 4.27-2.324 15.31.29 14.39 2.926-3.21-1.145-13.88-2.086-20.06-2.008 10.01 2.744 6.51 6.606 24.39 7.618.01-1.252-.63-2.094-1.39-2.797 10.04-.457 12.86.963 17.2 5.738 6.69.066 11.72-.998 14.45-3.615-5.15-.051-9.13-1.343-4.35-2.827l-5.8-.057c1.72-4.716-3.68-5.604-9.99-5.667 2.47-2.759 6.44-.214 8.64-1.724-2.45-.024-3.73-.732-4.36-1.852 8.74 1.2 5.23 5.062 12.94 7.505-1.68.122-4.12-.18-4.39.93 14.26 3.343 6.84-1.463.06-6.401 6.8 2.155 16.05 4.891 20.05 3.956-5.6-8.267-24.62-12.353-41.58-16.14 14.94-.269 30.59 6.289 44.46 9.627-.49-2.232-4.48-2.132-5.76-3.815.91-1.243 5.54-.084 5.81-1.752-1.8-.435-8.6-2.451-8.62-1.06-.01 1.392 3.6.732 2.81 2.812-17.42-9.498-45.14-5.318-48.78-16.21.12.696 4.74 2.83 4.37 1.017-2.18-.44-3.59-1.428-5.78-1.867-4.38 1.348 3.05 5.32-2.87 4.565-3.82-4.075-11.27-6.793-17.21-4.764 1.84-4.436-.87-3.766 4.42-4.55-1.93-.018-1.27-1.682-2.82-1.837-1.8-.017-1.94 1.234-4.38.931 1.66 1.13 4.98 4.921-.03 2.784 1.16.15-8.34-2.31-14.42.831 3.6.036 6.95-.07 7.19 1.88-8.12 1.034-16.06-3.499-23.02-2.037 2.1-5.546 9.27-.325 14.41.143 1.97-4.573 5.22-8.3 13.08-9.056-8.1-1.333-5.15.784-13.01.845-2.16-3.362 4.9-.508 4.4-2.74-17.85-5.188-18.62 9.42-33.1 2.456-10.71 2.956-11.04-4.564-24.44-2.052.01-1.67-.37-2.926-1.39-3.772 5.8-.36 6.42 1.734 8.63-.888-.43 5.563 15.04 3.628 14.37 6.544 4.28-3.715 13.6 5.146 18.69-2.598-11.05-2.615-32.29-3.521-35.86-7.732-2.46 2.48-10.43 1.428-11.44-1.923 6.06-1.053 11.95 2.485 13.01-.845-4.38.652-2.68-2.532-7.19-1.88-2.21 2.343-9.91.04-5.84 5.509-3.08-1.701-8.87-.923-5.76-3.815.11 2.228 4.76.186 4.38-.931-5.8 1.195-5.13-1.721-7.18-2.855-1.58 4.438-14.41-.7-18.66-1.16-4.26 1.35 3.69 4.909-2.87 4.566-5.02-.329 2.61-4.011-1.38-3.772-16.61.253-12.84-3.607-21.58-5.781 4-1.353 15.59-2.073 17.26-1.639-2.57.531-5.92.36-7.22 1.738 2.7.305 11.83 1.092 8.61 1.895-3.62 1.217-6.93-2.157-7.21-.072 9.64 2.044 20.3 4.238 31.64 3.098-5.38-2.56-18.03 1.073-24.41-5.81 7.2 1.463 11.47-.721 15.84.157-2.32-.162-6.98 2.715-4.4 2.74 11.73-2.806 22.8-2.14 31.65 1.288-10.44 1.845-12.08-2.068-18.67.79 5 2.694 18.81-1.763 14.39 2.926 8.25-1.31 7.2 1.045 13 .128.25 1.812-1.69 2.072-1.44 3.744 5.78 1.17 20.81 4.521 23.02 2.038-6.04-1.452-16.22-.161-20.05-2.983 3.64-5.253 19.56.89 23.05-.746.41-3.753-5.53-1.307-5.77-2.84 6.86-4.665 4.82-6.773 11.53-9.072 1.02 1.819 10.67 1.497 10.05-.875-1.78-2.245-11.33.444-12.99-1.938 2.2-1.37 6.71-1.187 8.65-2.698-2.18-.161-5.28.226-5.78-1.032 8.51-1.864-1.22-7.667-2.76-8.378 3.6.175 4.51-1.347 5.81-2.726-1.67-.156-4.12.098-4.36-1.018 9.39.371 1.82-2.626 10.04-.875-1.77-3.636 4.27-2.184 4.42-4.549-3.6-.036-4.52 1.765-5.78-1.032 1.54.016 3.6-.381 1.42-.96l-4.38-.043c-.79 2.915 5 2.555 1.38 4.607-5.66-.613-5.81 2.447-11.47 1.695-2.78-6.151.51.005 2.86-3.73-3.86-.038-3.06-2.952-7.18-2.854-1.96 3.182-12.5 1.407-14.41-1.117 4.53-3.435 7.68 4.947 10.04.1-8.48-2.033-5.63-3.814-11.42-3.872 2.08-3.32 10.67.802 13-.845-1.25-3.492.04-4.315-1.36-6.416-4.12.794-3.72-1.29-7.2-1.046 3.19 3.372.6 5.017 7.16 6.474-4.38-.044-7.33-.908-8.6-2.87 6.45-1.884-10.46-11.516-14.38-4.735 3.88-1.77 9.38 1.624 12.98 2.912-4.63-.602-7.22.207-8.64 1.724-1.39-3.215-2.44-1.694-5.77-2.84 1.53 1.406 1.52 2.241-1.44 2.769-7.07-2.019-12.09-2.069-18.69 2.598 3.6.036 4.52-1.764 5.78 1.032-5.54 1.198-10.4-2.47-13-.129 5.39 1.863 5.27 1.444 10 4.692.01-1.252-1.79-1.27-1.39-2.797 4.64.046 8.88.505 11.44 1.923 2.27 6.146-11 6.432-17.3 6.37 4.65-2.181-7.46-.63-2.81-2.812.37 2.23 2.85-1.642 4.39-1.766-3.74.38-5.03 1.203-7.2-1.045 1.16.011 4.4-3.019 1.44-2.77-2.21 2.345-17.63-.87-15.81-2.94 1.14 2.238.04-4.732 7.24-3.686 2.16 3.362-4.89.508-4.4 2.74 3.72 1.985 8.73 2.87 12.99 1.938-2.55-2.81-9.53.601-8.6-2.869 6.68 1.458 8.23.36 8.64-1.724.38.282 6.04 1.313 7.2.072-.73-4.322-11.17-3.034-15.8-3.915 9.83-4.635 16.07 3.082 20.1-1.61-3.36 1.358-1.41-1.267-7.19-1.88 3.59 1.287 5.94-2.587 7.21.07-1.68.54 7.66 6.757 10 4.693-4.77-.047-3.45-3.932-7.17-4.664 11.3 3.313 9.73 5.663 17.25-.804-.37-.839-5.38-3.115-5.78-1.031 2.32-.256 3.85 1.29 1.4 1.823-1.15-1.125-9.76-2.324-5.76-3.815.5 1.953 6.31-.077 7.22-.903-14.14-2.228-23.8-1.628-28.8-4.878-1.99 6.8 15.54 4.05 17.21 4.763-8.01 3.957-11.08 1.143-18.71 5.382-.25-1.116.28-2.641-1.39-2.797-5.56 2.729-10.73 4.765-18.69 2.598 7.06 2.019 7.5-4.38 2.87-4.564-1.43 1.656 4.22 3.104-.03 3.757-2.27-6.007-13.6-5.006-17.2-5.737 1.16-.128 2.83.028 2.84-.947-5.4-1.584-2.32.534-7.22.903.2-7.792 19.53 3.952 25.87 1.23-1.16.128-1.69.82-1.44 1.796 5.94-1.333 13.37 2.499 20.08.199-6.82.767-3.97-2.266-5.76-2.84-3.6-1.29-6.97 2.018-7.21-.072 1.67-.123 2.19-.953 2.84-1.781-2.58 1.366-3.22.803-2.81-1.838-3.75 1.355-9.4-.093-5.77-2.84-12.01 4.056-19.29-2.558-34.48-2.152.04-5.149 10.28 1.355 11.47-1.695-12.72-2.493-19.43-1.028-25.83-4.85 6.41 2.013 13.52-1.396 17.22 2.955.03-3.619 12.58 3.743 20.08.199-10.42-.938-26.62-2.77-21.58-5.781-5.13-1.721-7.49 2.988-8.63.889 7.13-5.497 4.27-2.046 14.43-1.667-.27 2.224.74 3.905 2.8 4.62 4.01-2.882-4.74-3.247 1.44-3.743 3.61.314 14.54 1.536 18.67.185-1.77-3.636-7.06-2.993-12.96-5.696.12 1.81 4.76.743 4.36 2.827-5.27-1.166-11.96-1.232-14.42-.143.9.01 1.67.017 1.41.989-6.95-.208.41-2.92 1.45-3.744-14.32 2.781-9.64-2.74-21.63-.214 1.16.15 2.83.028 2.82 1.002-5.15.227-3.83-3.657-8.59-3.843 1.4 2.102 4.87 2.971 4.32 6.445-5.14-.747-9.3 4.223-17.24-.17 16.95 4.204 7.9-5.629 2.88-6.374 5.41.053-1.31 2.492-2.88 5.538-2.69-1.697 2.48-3.176-4.35-2.826-2.29-3.642 6.18-.218 5.82-2.727-2.71-.026-3.09-.726-1.4-1.823-8.14 3.4-4.63-1.577-10.06 1.71.11 1.81 4.76.743 4.35 2.827-7.07-1.462-9.9-1.49-5.76-3.815-12.85-2.494-30.38-.301-41.67-5.006 0 .557 1.15 1.125 1.42.014-14.64-3.625-18.28.376-33.05-4.085.92-1.522 6.82.067 7.23-1.738-26.66 1.127-28.6 1.943-44.53-2.25-1.55.819-.41 3.336-4.4 2.74-9.37-3.295-32.19.794-51.7-5.106-3.36 1.359 2.8 2.95-2.86 2.755-9.89-2.742-12.7-5.136-25.84-4.013 2.19.16 5.28-.227 5.78 1.031-19.18.228-31.76-3.655-51.72-3.296 7.33.769 7.84 1.191 11.42 3.871-9.65.322-9.11-2.874-18.65-1.994 0 .696-13.09-4.305-14.38-3.9-11.62 4.338-19.76 6.902-27.33 4.322 1.8.575-2.05-1.273-2.85 1.781 5.4.889 8.51-.89 8.61 1.895-7.59.203-13.34-5.7-20.05-2.983 4.5.045 7.97.497 10.02 1.91-4.37-.74-5.29.921-8.63.888-3.35-.311-3.19-2.954-5.76-3.815-.27 1.39.48 3.484-1.45 3.744 1.19-3.886-8.88-.506-10.02-2.883 1.63 5.305-10.46 3.654-1.43 1.795-7.85-.078-16.09-.438-18.67.79-.01 1.53 3.98.595 4.36 1.852-8.11.476-10.55-.522-15.84.817-3.21-1.423 1.82-2.209-1.39-2.797-8.14 2.564-15.44-1.406-27.28-1.245 2.03 2.665-3.91 4.694-.05 5.567-1.53-2.381 4.92-3.987 5.81-1.752-2.32-.719-2.36 4.292-.04 3.758 19.06-.786 24.46.52 41.72-.561-1.27-2.518-5.29 1.757-5.78-1.867 5.02-.229 7.61-1.038 11.45 1.088-2.32-.023-5.02-.05-4.39 1.766 9 1.48 18.15-.377 24.44 2.051-6.69-.901-1.56 1.377-4.39 1.766-16.21-1.274-36.18-.08-54.69-2.351-.4 1.11-5.07 4.682-4.39.93 1.16-.127 2.83.029 2.84-.945-11.36 3.506-8.49-.502-18.69 2.598-.25-1.116.28-2.641-1.39-2.797-4.69 6.356-21.58-5.92-27.31 2.513.01-1.531-1.14-2.378-2.81-2.812 3.96 3.658-4.15 2.882-2.84.947-24.73 1.564-72.07-2.802-99.26.826 1.16-.128 2.83.028 2.84-.946-3.62 1.356-8.13 1.59-10.06 1.71 13.36 3.611 27.69-.84 35.89 3.139-.9-.01-1.67-.017-1.42.96.9.009 1.67.156 1.41.988-6.04-1.73-14.92-1.679-21.61-2.998-.01 1.114 1.8 1.27 1.4 2.798-36.69-.503-86.12-1.27-125.14.57-.63-1.12-1.52-2.103-2.81-2.812 2.93 3.926-7.88 3.402-8.64 1.724 2.07-.536 7.46 1.187 7.22-.903-7.22 1.042-10.42-1.077-15.84.817 2.05.578 7.48-1.039 7.2 1.046-10.43.453-15.56-2.52-23.03-1.202 1.68-.68-27.44 2.511-31.67-.314 4.51.045 7.99-.339 10.06-1.71-15.31-1.265-8.63-.224-20.07-2.008.51 1.258 1.66 1.547-.02 2.784-33.6-.75-31.43 1.498-56.13-.556 1.63 5.583-20.57-2.57-23.06 2.555-1.12-4.326 12.92-5.857 14.44-2.64-1.54-.016-3.61.38-1.42.96 3.78-5.67 17.24.727 21.66-4.38-5.39-1.305-9.93 2.686-13-.128 2.61-4.289 12.61.96 14.44-2.64-3.2-2.12-5.93.915-11.46-.114-1.4-1.684 4.28-3.02.04-3.758-2.59 1.088-6.58 1.327-7.24 3.687 1.83-4.019-10.92-2.614-11.46-.114 8.38-1.448 6.93 2.017 14.39 2.926-10.95 1.284-24.97.031-34.53 4.251 1.31-3.745-3.46-2.54-4.37-1.852-.01 1.252 2.57.86 2.82 1.837-3.87.518-11.45-1.227-13.01.845l10.04.1c20.72.483 0 .556-10.05 1.71-3.18-4.486-8.84-5.655-14.4-2.927 7.85.913-3.22.247-2.84 1.782 15.45-.543 18.78 1.717 1.4.988-.91 1.522-6.82-.068-7.22 1.738 6.94 1.043 13.67-2.788 18.66.184-28.61 4.171-58.04-1.131-84.84.97-4.89.369-5.95 3.56-11.488 3.644-6.05-.06-19.935-2.146-17.233-1.98-5.406-.054-11.989 1.969-18.68 1.624-11.453-.531-26.392.156-31.674.66-33.749 2.45-85.61.266-105.038-1.04-.024 2.783-5.04 2.316-8.648 2.698-2.155-3.919 7.467-.065 7.232-2.712-6.553-1.457 1.057-3.19 1.463-5.553-5.036 1.899-13.139.983-11.44-1.923-10.576 2.262-15.953-1.271-14.449 3.615 7.083-.347 17.371.868 21.617 1.189-3.305 10.127-23.173.049-41.746 4.18 2.97-1.085 6.811 1.459 2.817 1.837-1.923-.994-13.653.838-10.017-2.883-1.043 1.52 6.809 1.598 5.793.057-8.751-.365-12.211-2.209-14.378-4.736.881 2.375-.672 3.334-4.4 2.74-5.149-.05 3.115-3.03-1.393-2.797-3.359 1.498-13.248-1.245-17.257.803-.014 1.67 1.48 7.67 7.17 4.665.394-.97-6.823-.068-2.817-1.838.764.982 9.403-.603 14.417.143-1.056 3.052-4.411 3.993-4.424 5.524-5.628-4.232-24.082 1.014-25.849-3.04-4.744-2.274 4.231 1.99 4.384-.931-.504-1.258-1.66-1.547.024-2.784-5.044 2.734-5.412.643-14.425.832 4.09 3.38-2.204 1.788-2.856 2.755 1.801.157.893.983-.015 1.81 2.055.577 7.475-1.04 7.2 1.045-9.788.46-13.273 1.539-21.625-.214 2.944 1.978-.659 1.803-2.856 2.755-.634-1.12-1.527-2.102-2.808-2.811-10.481 6.299-24.572-1.914-31.682 1.495-1.25-4.327 4.759.604 4.393-1.765-1.538-.85-.358-3.344-4.353-2.827 1.136 2.656-2.08 2.345-1.455 4.578-6.058.776-11.425-3.87-14.402-1.952 4.758.604-11.884 4.754-10.032-1.073 1.271 1.96-2.361 5.126-2.856 2.755 2.196-.813-4.107-1.432-2.808-2.811-6.176-.34-12.224-.678-13.024 2.654.406-2.362-.481-4.04-4.345-3.8-2.707.39-9.705 5.888-8.648 2.697 2.574.026 3.355-.94 2.855-2.755-3.873 1.353-6.941-1.182-4.392 1.766-9.116-2.735-20.211.078-21.633.76 5.685-2.45-2.55-2.948 2.879-5.54-4.125.656-3.77 4.278-10.072 3.66-2.703-.028-1.004-3.073-4.353-2.828-2.47 2.76-18.948 2.875-13.001-.128-5.395-1.446-2.725 2.478-7.224 1.737-6.421-1.873-8.583-4.956-12.969-3.886 1.184-2.911 1.175-1.937-1.384-3.772 8.351 2.032 5.665-.083 14.409 1.117.372 1.674-1.455 4.579 2.8 3.786 1.43-1.656-4.222-3.104.032-3.758.605 4.46.524-1.108 4.376.044 3.46 1.843 7.563 3.833 7.161 5.638 3.752-2.19-1.001-3.35-2.792-4.62 10.202-3.797 9.625 3.435 15.856-2.627-14.932-.148-54.454.017-58.939-2.394-2.858 3.034-10.954 1.284-13.025 2.655 2.814 2.116-.394.97-1.44 2.77 1.683-1.097 21.987 3.14 13.01-.846 5.663.056 12.879-.707 12.977 2.912-17.764-.176-26.79 1.544-37.459-.37.475 4.736-4.895.368-4.408 3.714-.472-5.016-5.511-2.839-7.161-5.639 7.095-1.739 7.714 1.19 8.601 2.87.025-2.923 1.562-2.073 5.824-3.701-4.497-1.019-3.858-.456-7.217.903 2.096-4.155-2.304-1.554-5.753-4.65.862 4.601-7.131 5.914-8.696 8.264-3.43-5.323-10.302.455-14.393-2.926 5.919.337 8.393-2.979 13.017-1.68-1.16.127-2.832-.028-2.841.946 2.307 1.275 9.782.236 10.065-2.684-8.756.191-22.545 1.864-23.034-1.203-.005.696 13.782-.837 2.848-1.78 6.31-.217 10.684.105 10.025 1.908 8.032-5.905 23.542 1.903 28.881-5.281-3.625 2.47-7.736 1.454-11.464.86 1.17-1.38 4.517-1.347 4.408-3.714-7.354 1.876-15.73 2.906-20.072-1.173 2.944 1.978-.659 1.803-2.856 2.755-1.537-.85-.358-3.344-4.353-2.826 3.969 2.544-2.066.814-2.855 2.755-10.025-1.909-14.155-.697-28.81-3.07 2.295 2.529-9.269-.09-13.01.846 4.663-3.294 8.124-1.59 17.264-1.638l.024-2.784c25.508-2.113 36.054-1.034 64.748.642-.881-2.375-14.622-6.27-8.609-1.895-8.89.886-1.771-3.636-10.009-3.857-.268 1.25 5.769 2.84 1.384 3.772-3.587-1.984-11.307-2.478-15.793-4.75 2.064-.536 7.456 1.188 7.216-.903-2.187-.16-5.28.226-5.784-1.031 4.879 1.58 6.212-3.836 8.633-.889-8.238-.082 2.658 5.315 4.361 1.853-1.672-.156-4.12.098-4.368-1.018 3.746-1.494 8.612 1.477 13.009-.845-.422 4.171 8.087 2.724 14.402 1.952-3.6-.593-11.978.577-12.969-3.887-13.794 2.23-19.69-.752-27.305 1.54-.011 1.252 2.567.86 2.817 1.836-6.062 1.332-9.125-1.76-11.489 3.645.022-2.505-2.43-1.834.032-3.758-1.554 1.098-6.567.213-8.616-1.06 8.896-1.582 11.71.534 15.848-1.652-12.606-1.1-9.276.882-21.61-2.024-.266 1.111.235 2.647-1.439 2.77.274-1.946-1.134-2.934-4.353-2.827.248 1.116 2.172 1.97-1.431 1.795-2.701-.305.785-1.523-1.401-1.823-1.931-.02-1.301 1.657-2.847 1.781-2.674-3.506-20.837-2.155-25.865-1.23 2.956.586 9.406-1.02 10.032 1.073-10.29-1.076-19.941-1.45-25.85-3.04 2.19-.117 5.276.331 5.801-.916-4.381.513-12.347-1.375-14.425.831 2.571.443-.652.968-1.431 1.795 3.339.869 2.045 1.69 7.184 2.855-1.165.824-9.156 1.858-10.04-.1 1.547-.262 3.488-1.496 1.431-1.794-3.604-.036-6.95-.208-7.224 1.737 3.085.588 4.657-2.598 4.369 1.018-19.075 2.595-43.516.404-70.556 1.11-13.006.428-35.538.901-31.689 2.47-37.056-2.315-83.585 4.322-119.494 3.41-6.05-.06-9.64-1.766-13.017 1.68-.462-6.129-15.85 1.93-21.61-2.023 2.724-2.34 15.103-4.722 18.674-.79-.594-5.851 14.263 3.064 15.856-2.626 19.831-.639 53.819-.998 67.619-3.923-6.944-.904-21.132 2.295-11.448-1.088-12.498 1.268-21.901 1.87-35.906-1.33-8.117.894-14.336 5.564-23.073 3.53 3.613-.94 7.987-.618 11.472-1.697-11.179-2.476-57.852 5.97-51.747-.512.49 2.928 13.64.692 20.105-2.585.248 1.116-.28 2.642 1.392 2.798 5.809-1.891 11.331-.306 20.113-3.559-7.983.2-13.273 1.539-18.657-1.159-.008.974 1.149 1.125 1.401 1.823-5.266-1.444-5.778-1.727-11.424-3.87.245 1.393 7.683 4.807 1.376 4.606-2.442-.442.268-1.25.024-2.784-6.577 1.327-10.82.728-2.823-1.002-9.404.742-9.136-.508-10.009-3.857-2.462 1.924-.957 6.532-7.24 3.686 4.498.88-2.148-4.753-4.33-5.61-.004.557-.266 1.11-1.424.96 5.793.058-.035 4.175-2.887 6.513 2.601-3.175-.486-3.484-4.338-4.636.987 5.02-7.485 2.153-5.8.917-5.563 3.146-22.945 3.53-30.25-.3-4.683 5.66-8.612-1.616-8.649 2.698-5.133-1.86-6.303-.48-10.016-2.883 3.99.04 8.889-.747 5.816-2.726 15.544 3.912 21.585 4.947 33.066 2.137-4.895.37-16.084-.855-12.961-4.721 1.022.845 7.993-1.452 10.04.1-1.048 2.077-9.905-.934-8.648 2.697 11.46-.443 11.61-2.947 18.712-5.382-.278 2.364 3.2 2.259 4.345 3.801.01-1.252-.626-2.094-1.393-2.797 12.11-.994 17.645-.939 28.873-4.307-5.803 1.195-4.488-1.993-8.609-1.895.748 2.93-2.32.395-4.408 3.714-.248-1.116.28-2.641-1.392-2.797-2.348 3.595-1.174 1.798-5.801.917 1.92 1.271.877 2.792-1.448 3.743.01-1.252.661-2.081 1.44-2.769-1.931-.019-3.215-.449-4.369-1.018-3.634 3.444-1.035.686-5.8.917-10.302.316-27.856 5.71-38.907 3.373 2.55 2.809-11.219 2.255-10.119 9.086-4.643 1.067-10.936-.665-7.24 3.686-2.71.808-4.74-2.83-5.793-.057.353 3.9 5.416-1.06 7.193 1.88-1.16.128-2.832-.028-2.84.947 2.06.02 11.716-.163 7.2 1.045-2.579.531-8.486-1.197-8.633.889 2.036 2.804 7.487-2.292 7.194 1.88-2.703-.165-3.227.943-5.801.917-3.345-.311-.865-4.323-5.76-3.815 1.27 1.962 4.352 2.827 4.328 5.61-6.978 3.133-17.67 4.001-24.52 7.134 3.465 1.287.886 1.819 2.808 2.812 4.27-2.463 5.016.606 10.049-.875-.78.828-7.742 2.15-4.4 2.74 3.87-.936 11.084-1.56 12.992 1.103-2.31-.718-6.323 1.747-2.847 1.782 5.815-2.587 13.916-1.533 18.673-.79 1.05-2.356-9.77-1.628-4.344-3.8 6.287 2.428 22.515 1.475 30.225 3.082-.494-2.37-.73-5.018-2.777-6.43 2.677 3.089-5.182 3.846-5.808 1.752 2.446.024 3.74-.659 4.392-1.766-1.683 1.097-5.41.364-7.2-1.045 5.671-.78 5.197-5.516 2.887-6.374 5.646 2.143 4.128-1.073 10.048-.875-1.05 2.495 2.817 1.837 2.8 3.786-3.728-.594-5.152.366-4.4 2.74 2.088-3.32 7.206.35 13 .129 2.287 3.641-6.18.217-5.815 2.726 7.186 2.715 15.208-2.077 17.225 2.954-5.786-.892-6.945-.765-10.056 1.71-5.788-.614-9.074-7.745-14.37-5.71 1.007 2.794 8.226 1.612 8.586 4.678-2.065.537-7.457-1.187-7.217.903 6.926 2.992 19.727-3.563 25.85 3.04-3.625 2.33-9.929 1.85-13.002-.13 2.58-.53 8.487 1.199 8.633-.888-12.762 2.1-37.167-4.265-47.53 3.287 6.315-.911 3.734-.102 8.615 1.06.928-3.053 11.23-3.508 13.01-.846-2.065.537-7.457-1.187-7.217.903 2.703.027 3.083.727 1.4 1.824 6.862-4.525 29.867.017 43.162-4.166-1.662-1.408-5.912-1.172-5.76-3.815 6.166 1.453 10.434-.87 15.808 2.94-2.965.528-9.387-1.206-10.048.875 2.3 1.971 8.743 1.2 11.432 2.897-3.239 2.473-12.254 2.94-14.449 3.615 10.793 2.473 27.287.548 37.467-.603-12.026 6.283-33.214.088-34.552 6.06-6.042-1.034-19.952-.198-23.05.746 5.388 2.141 14.68-.55 23.033 1.202-14.195 4.035-31.162.944-41.722 1.396-1.133-2.934-1.141-1.96 1.449-3.743-8.875-.923-14.925-.983-14.45 3.615-6.412-2.848-21.753-.355-21.577-5.782 2.835-.389 14.011 2.366 15.848-1.652-4.392 1.766-9.66.461-2.824-1.002-10.298-.102-15.346 3.188-17.24-1.145.502 1.536 2.06.02 1.431-1.795 8.113-.338 9.79-.738 15.825 1.13.01-1.252-2.568-.86-2.817-1.837 2.467-2.48 10.153 2.05 11.457.114-5.66-.474-5.756-4.372-11.418-4.706.74 3.765-5.013-.885-1.44 2.77-8.736-2.036-11.475 2.112-17.24-1.146 4.864 3.25-5.16 1.34-4.416 4.55 6.833-1.186 5.254 2.835 8.593 3.842-7.343.624-23.943-.237-24.481 2.542-6.304-.48-4.76-.326-10.032-1.074.852 5.715-10.698 1.564-8.68 6.316-1.275-1.404-1.127-3.63-5.768-2.84 1.915 1.828 6.248 7.02 11.424 3.87-4.505-.044-1.012-2.097 2.864-3.729-2.758 6.375 8.234.639 10.025 1.909-2.845 1.503 2.914 5.457 5.737 6.598-2.575-.025-8.346-2.588-10.04-.1 2.694 1.002 6.554 1.319 7.176 3.83-1.55.541-9.52-.79-11.433-2.897 1.931.02 3.215.45 4.368 1.018-1.273-1.683-3.193-2.955-5.76-3.815 2.799 3.924-7.317-2.439-11.465.86 1.142 1.96 9.142-.188 10.025 1.909-5.92-.059-.262.554-.015 1.81-2.055-.578-7.476 1.039-7.2-1.046 1.16-.128 2.832.028 2.84-.947-9.65-.513-30.466-5.173-28.881 5.282-9.762-2.602-13.129-.27-18.674.79.505 1.257 2.045 1.829 1.384 3.77 4.135-1.768 3.76-3.024 10.056-1.709-1.7 3.184 6.242 7.717-.047 5.567 1.542.294-24.335.455-25.85-3.04 1.43-1.517 5.29-1.478 4.416-4.55 2.58-.53 8.486 1.198 8.633-.888-2.048-1.412-7.33-.908-11.448-1.088-.27 1.39.485 3.485-1.448 3.744 1.203-5.277-10.649-4.281-11.448-1.088-.635-1.12-1.527-2.103-2.809-2.811-.269 1.389.486 3.484-1.448 3.743-2.567-.86-11.177-2.616-12.992-1.103 12.872.128 9.568 10.116 15.73 12.126 1.446-3.465-5.87-6.043-2.768-7.404 2.285 3.78 11.947 2.902 12.938 7.505 10.324-2.96 9.008.368 21.633-.76-.429 5.006 5.79.475 7.17 4.664 1.564-2.35-4.852-4.78 1.455-4.579-.415 3.337 7.33.908 8.585 4.678-.478-4.319 6.196-2.026 7.208.072-5.92-.059-6.698.49-8.663 4.507-11.087 1.839-15.279-4.744-21.602-2.998-2.17-2.109.55-4.03-1.377-4.606-1.674.122-1.556 1.376-1.44 2.77-3.861-.04-5.094-6.454-8.592-3.844-1.447 3.604 4.224 2.826 2.778 6.43-19.215 3.846-30.34-4.894-46.075-1.43l-.212 24.911 1.032-.268Zm245.397 71.745c2.317.023.794-2.498 2.856-2.755.359 3.204 6.321-1.608 5.784 1.031-1.806.4-2.971 1.223-2.856 2.755-2.187-.16-5.28.227-5.784-1.031Zm279.039 6.522c-4.645 1.207 5.917.476 4.353 2.827-6.44.354-10.167-.38-7.177-3.83-3.754 2.469-4.367-1.156-8.616-1.059.248 1.116 2.557 2.113-.024 2.784-2.944-1.978.041-4.732 4.416-4.55-.013 1.531 1.138 2.378 2.808 2.812.918-1.94-4.094-2.964 1.44-2.77-1.698 2.906 2.298 2.25 2.8 3.786Zm484.769 4.802c.28-2.642 12.129-3.22 11.465-.86-6.697.35-4.768.509-11.465.86Zm483.5-12.748c10.69-.59-4.63-.463-2.8-3.785 7.97 1.331 14.67 1.258 17.24 1.98-2.08 1.789-10.08 4.493-14.44 1.666v.14Zm712.48-38.177c1.43-.96 7.88-3.402 10.05-.875-2.32-.023-5.02-.05-4.39 1.766 3.86.038 8.5-.472 8.61 1.895-5.4-.61-10.29-1.494-14.39-2.927l.12.14Zm-51.25-58.687c1.26 3.91 9.15-1.023 10.01 3.857-5.28.505-13.24-1.94-10.01-3.857Zm18.6 8.535c2.95.586 6.29 2.011 1.39 2.798-1.38-4.05-15.07.268-18.66-1.16 2.07-.814 5.54-.64 4.41-3.714 5.26 2.697 8.64-1.445 7.19 1.881 2.07-.397 2.46-1.09 4.38.043-.38-1.256-2.3-1.553-2.81-2.811 11.68 4.43 26.09 5.13 31.57 11.447-8.88-.505-14.64-3.485-23.02-2.037-.62-2.93 2.6-3.176 1.47-6.388-2.71.808-4.74-2.83-5.79-.057l-.13-.002Zm-58.95-1.558c-.22-3.9-.9-.148-2.83-.028-.76-1.4-2.17-2.248-4.35-2.827 1.27 1.961-1.34 5.694-2.86 2.756 1.93.019 1.82-2.488.02-2.784-2.71.948-10.55.174-10.06 2.684-.25-1.116-1.54-.572-2.83-.028-1.9-4.333-11.99 1.552-14.4-2.926 2.47-2.481 7.31 3.413 4.39-.931 6.05-.636 8.09 2.029 10.05-.875.37 1.674 2.43 2.112 5.77 1.867 1.19-3.19 17.39-.802 25.87 1.23 1.18-2.632 8.26-2.145 11.45 1.088-2.71-.027-1.06 3.052-4.4 2.74-2.3-2.667-8.21-3.143-7.2-1.045-6.69-1.18-3.32-3.93-8.62-1.06v.14Zm-169.28-60.83-8.62-.086.01-1.809c.26-.693 1.17-1.102 2.84-.946-.67 3.612 4.25-.515 5.77 2.84ZM762.404-52.168l-.023 2.783c-2.578.392-4.905 1.482-7.209-.071 3.733.037 1.578-3.882 7.232-2.712Zm-283.455-1.834c.251.698-.015 1.81 1.4 1.823.011-1.252 4-1.074 4.377.044-5.283.643-7.237 3.268-10.04-.1 2.062-.258 2.458-1.507 4.392-1.766l-.129-.001Zm-89.086-14.8c.901.008 1.673.016 1.424-.961-11.733 2.11-26.025 2.526-37.482 2.412-1.405-1.266-1.386-3.493-4.344-3.8 2.558 1.973-1.046 1.798 1.384 3.771-15.575-.294-23.042-.228-34.506.632-.117-1.393.156-3.2-2.809-2.811.505 1.258 1.661 1.547-.023 2.783-12.846-3.189-25.504 1.696-35.898-2.165-37.378 5.198-90.262 2.308-125.19 7.111-3.048-4.901 9.306-4.361 15.865-3.6-.241-1.951 4.397-2.323 5.816-2.726-2.58.67 4.778-1.763 5.808-1.752 2.834-.25 14.387 3.622 13.009-.846 2.57.582 8.506-1.03 8.616 1.06-1.159.127-2.831-.028-2.84.946 3.349-.245 7.346-.901 4.401-2.74 10.548.94 7.365-3.268 14.416.143.011-1.253-.625-2.094-1.392-2.798 5.415-.92 4.618 1.995 7.185 2.855.15-2.504-2.43-1.833.032-3.758 9.373 2.877 19.463-2.869 27.281 1.245-1.165.684-2.214 3.04 1.384 3.772 4.252-.515 28.573.7 18.688-2.599 4.642-.79 5.4.889 7.193 1.88-2.159-3.361 4.897-.507 4.401-2.74-3.328-2.26-7.081.07-11.457-.113 24.238-4.214 50.615-2.56 74.82-3.017.009-.974-1.149-1.125-1.4-1.823 8.483 1.615 18.932-.926 27.281 1.245-6.833 1.184-13.281 2.513-20.113 3.558l-.016 1.81c14.404 1.673 22.149-.755 34.49 1.316l.024-2.784c6.028 2.565 9.396.093 10.016 2.883 6.192-1.47 7.237-3.269 15.872-4.436 2.533 4.897 24.207-.595 23.01 3.986-18.54.234-33.632 3.703-44.562 2.342l-.384-.282ZM116.459-56.759c-1.675.123-4.118-.18-4.385.931 2.06.02 11.717-.301 7.2 1.046-5.272-.748-6.192 1.47-11.464.86-.878-2.792 6.095-5.228 8.648-2.697l.001-.14ZM41.552-43.58c3.88-2.05 9.67-1.714 7.24-3.686 3.606-.104 4.494 1.436 5.77 2.84-6.679-1.875-9.173 3.807-13.01.846Zm8.593 3.843c-6.433-.481-15.985 2.486-10.08 4.493l-2.832-.028s-.267 1.111-1.424.96c.937-4.166-5.606-6.875-8.577-5.652-.372-1.674 1.455-4.579-2.8-3.786 2.926 4.066-4.379.235-5.784-1.031-.008.974-1.168 1.102-1.431 1.795 4.895-.37 4.352 2.827 7.176 3.829 5.946-2.864 3.95 4.771 10.025 1.909-.27 1.389.485 3.484-1.448 3.743-.224-3.9-.9-.148-2.832-.028-2.02-4.752-10.156-1.631-15.825-1.13C15.888-38.13.03-35.364 4.297-37.549c1.802.018 3.349-.245 2.847-1.78-4.494-1.298-4.761-.187-10.04-.1-.376-1.257-2.304-1.554-2.808-2.812 3.094-.526 4.611 2.69 4.384-.93 3.853 1.15 6.681 1.596 8.61 1.894-2.965.388 3.97 2.266 4.344 3.801-.367-2.23 5.245 3.81 7.208.071-5.277-.052-7.707-1.885-10.008-3.857 6.93 2.574 5.19-4.68 4.424-5.523l-2.832-.028c.248 1.116 2.557 2.113-.023 2.783-1.927-.576-.227-3.621-2.8-3.786-2.352 4.013-3.714-2.263-4.392 1.766-3.604-.035-6.952.07-7.193-1.88 12.114-1.55 29.348.29 37.419 4.963-2.45.394-3.721-1.428-4.377-.043 3.35-.245 1.522 2.66 4.353 2.827 4.928-4.266 14.535 1.397 21.65-2.57 1.787 1.689 4.482 2.69 5.752 4.65 2.463-1.924 1.588-4.994 4.41-3.714-4.123.377 2.304 1.415 2.816 1.838-1.662-1.409-1.526-2.242 1.44-2.77.248.977 1.532 1.407 2.816 1.837.008-.974-1.15-1.124-1.4-1.823 6.668 2.99 29.511-3.744 31.65 2.123 5.417-1.199 37.086-1.303 33.081.328l-10.04-.1c-3.499 2.75-16.727-1-20.096 1.61.251.7-.016 1.81 1.4 1.824 8.381-1.587-8.41 5.066-11.44-1.923.108 2.367 2.678 2.95-1.449 3.744-3.455-2.4-.874-3.07-7.2-1.046-2.946-1.7-1.262-2.935-2.8-3.785-10.16-1.214-8.127 2.007-11.488 3.644-.63-1.538-1.803.121-4.377-.044-3.206-1.423 1.822-2.209-1.392-2.797-2.986 3.032-14.078 5.428-21.649 2.57 7.452 1.743 8.91-3.253 13.01-.846-3.207-1.424 1.82-2.21-1.393-2.798-2.842 1.225-8.797 5.063-5.792-.057l-.777.549Zm33.057 3.111c-1.68.819-3.872 1.214-7.216.903.528-1.526-2.168-2.388.023-2.784-.014 1.67 7.224-1.737 7.194 1.881Zm27.725 130.273c1.776 3.08-9.802 2.13-10.049.875 4.502.462 5.035-1.62 10.049-.875ZM1.681 87.971c2.712-1.087 9.952-4.634 11.464-.86-5.907-1.73-2.717 1.642-8.624-.086-.01 1.113 1.791 1.27 1.392 2.797-2.442-.442-3.745 1.355-4.377-.043 1.804-.121.91-.965.016-1.81l.129.002Zm227.315 3.226c-2.187-.16-5.28.226-5.784-1.032 3.599.732 5.956-3.977 8.633-.888-3.987-.457 3.575 3.515-1.448 3.743-.252-.698.015-1.809-1.401-1.823Zm17.249.17c3.471.592 10.436-1.01 11.448 1.088-4.248-.042-9.669 1.714-11.448-1.087ZM66.467 84.02c7.34-.206-15.207 1.937-14.401-1.953 7.846.774 6.935 1.879 14.401 1.953Zm779.705 3.965c3.996-.517 17.387-.941 17.241 1.145-3.99-.04-7.465-.213-4.392 1.766-11.199-.11-6.17-1.035-12.977-2.912l.128.001Zm25.874.257c2.569.582 8.505-1.03 8.616 1.06-1.931-.02-1.302 1.656-2.848 1.78-.224-3.9-.899-.148-2.831-.028.401-1.805-1.916-1.828-2.809-2.811l-.128-.001Zm-77.749-.77c.626 2.093-7.876 2.705-8.633.888 3.856.734 2.977-1.78 5.808-1.752.252.699-.015 1.81 1.401 1.823-.756-1.956 5.68-1.892 1.424-.96Zm126.534 1.253c1.132 3.212-11.86 1.97-13.009.845 5.033-1.481 7.716.912 13.009-.845Zm-79.116-6.351c2.536 4.479 1.032-.268 2.84-.947 1.279.987 3.212.728 5.792.058l-.039 4.593-8.624-.086c1.43-1.656-4.222-3.104.032-3.758l-.001.14Zm-5.848 6.344c2.856-2.755-1.891-4.612 2.88-5.539 1.009 2.376 3.044 5.32-2.88 5.54Zm246.013-.347c1.67-.122 4.12.18 4.39-.93-1.42-.014-1.67-.713-2.83-1.003-2.84 1.503-5.04 2.595-7.21-.071l-.02 2.783c-3.74.38-12.87-.406-8.61-1.894 3.2 1.84 5.55-1.198 5.82-2.726 9.91-.041 15.07-1.104 24.47-1.567.37 2.37-.55 4.03-4.41 3.714-.25-.699.02-1.81-1.4-1.823 2.03 3.5-6.44.075-4.41 3.714 1.04-.686 8-2.008 8.63.085-4.89-.605-9.55 2.69-13.02 1.68 2.58-.391-.64-.98-1.4-1.822v-.14Zm-361.043-6.36c6.301.759-1.143-1.82 2.847-1.78 3.441 4.07 13.877 3.06 18.641 2.968.013-1.531-3.985-.597-4.361-1.853 14.557-1.109 25.734 1.507 11.441 1.923-2.703-.027-3.21-1.007-5.784-1.032.756 1.956 4.094 2.964 1.377 4.607-4.62-1.716-9.506-2.46-15.825-1.131-.244-1.534-4.089-3.52-7.193-1.88.375 1.255 2.304 1.553 2.808 2.81-2.187-.16-5.28.227-5.784-1.031 5.919.337-.247-1.255 1.448-3.744l.385.143Zm46.067 2.266c1.688-1.653-10.439 1.428-5.784-1.031 5.653 1.308 2.987-3.033 8.64-1.724-.153 2.782-4.826 7.329-8.664 4.507.912-1.244 5.536-.084 5.808-1.752Zm290.646 3.853c2.68 2.81-17.78 2.051-15.84.818 8.36 1.474 5.06-4.682 13.03-3.63.23 3.204-4.89-.047-5.82 3.701 4.37.74 5.28-.922 8.63-.889Zm212.91 2.11c5.14.886 13.52-.702 11.44 1.922-1.01-2.098-10.96 2.258-11.44-1.922Zm-376.877-6.517c-7.847-.774-8.395 3.118-17.265 1.638.373 1.535-1.952 2.486-2.84.946 2.336-2.204 8.769-1.722 8.672-5.481 5.796-.36 6.422 1.733 8.633-.89-1.051 2.496 2.816 1.838 2.8 3.786ZM719.55 81.998c.741 3.626-11.616 3.503-14.433 1.666 6.442-.632 10.952-1.144 14.433-1.666Zm132.335.336c4.629.603 6.699-.63 10.049-.875-1.053 2.635-5.435 3.287-8.664 4.508.273-1.807-1.656-2.105-1.384-3.772l-.001.14Zm21.625.214c-10.314 1.847-3.921 6.92 0 0Zm60.395-2.185c2.055.577 7.475-1.04 7.2 1.046-5.026.646 1.01 2.376 2.793 4.62l-10.041-.1c-.733-4.6-.78.967-2.84.947.011-1.252-2.567-.86-2.816-1.837 4.66-3.016 1.558-1.516-1.392-2.798 3.25-3.726 12.982 2.356 7.224-1.738l-.128-.14Zm260.365 7.172c1.67.156 4.12-.098 4.37 1.018-6.44.771-24.21 1.013-14.4-1.952-15.58.402-29.1.825-41.73 2.37-.5-1.536 2.21-2.344.02-2.783-2.96.527-3.1 1.36-1.44 2.769-2.18-.16-5.28.226-5.78-1.032 1.8.018 3.35-.245 2.85-1.78-5.54.223-12.78 3.352-14.42-.144-3.98-1.013-4.17 5.248-7.23 1.738 4.77-.788-1.52-1.824-1.39-2.797 6.31.34 30.17-4.712 35.91 1.33-.58-7.383 27.64 4.727 30.3-5.268 4.61 2.552 13.85 6.262 21.59 3.972-1.95 2.069 3.7 3.517-.03 3.758-.51-1.258-7.31-3.274-8.62-1.06v-.139Zm8.66-3.672c-1.16.128-2.83-.028-2.84.946-4.49-2.41-7.18-3.55-12.99-1.103.43-5.285 14.04-1.948 15.83.157Zm-909.202-5.248c6.951.069 10.567-1.288 14.417.142-4.382.653-9.667 1.436-14.417-.142Zm625.882 2.442c2.704-.113 3.209 1.005 5.784 1.031 1.908 2.663-2.622 5.541-4.401 2.74 1.16-.127 2.832.028 2.841-.946-7.067-1.601-18.679 1.485-28.826-1.26 10.844-3.511 13.757 2.085 24.473-1.567l.129.002Zm58.97-1.226c-.011 1.253.626 2.094 1.392 2.798-3.349.245-5.534-.194-7.2-1.046 1.387 3.354-7.602.76-2.864 3.73-5.676 1.335-9.007-.507-13.009.845-1.518-3.216 1.721-5.55-5.761-3.815-.098-3.62 12.502-1.685 13.001.129-3.215-.31-5.408.225-5.808 1.752 3.869-.797 8.252-1.45 11.48-2.67-1.672-.156-4.12.098-4.368-1.018 4.256-.932 8.762-.887 10.04.1-3.491 1.775 2.573.303 2.841-.947l.256.142Zm122.27 3.02c6.19-1.19 10.43-.453 12.98 2.913-4.75-2.135-6.18-.479-8.62-1.06 6.32-1.468-10.68-.384-4.36-1.852Zm-51.74-1.486c-5.13-1.443-.93 3.192-4.4 2.74-.24-1.533-6.06.914-10.04-.1 1.18-2.632 10.98-4.484 14.44-2.64ZM44.944 71.836c.026-3.061 3.636-3.721 5.84-5.509.246 1.394-.544 3.474 1.384 3.772 6.351-5.087 7.332.629 17.249.17.263-.693.015-1.809 1.431-1.795-.27 1.39.485 3.485-1.448 3.744-10.03-1.352-13.378-1.246-24.457-.242l.001-.14Zm1465.946 7.98 7.21.072c.76 1.399 2.17 2.387 2.8 3.785-7.07-1.6-8.37.196-15.85 1.653 2.35-3.04 6.59-2.162 5.84-5.51Zm-128.08-1.269c-.68 4.17 12.5-.433 11.43 3.872-.27 1.528-9.93 1.432-10.04-.1 4.25-.097-6.41-3.125-1.39-3.772ZM39.2 66.212c-.01.974-2.585 1.088-2.833-.028 3.097-.804 7.73-.758 10.04.1-2.831-.028-1.823 2.487-5.807 1.751-.252-.698.015-1.809-1.4-1.823Zm1617.02 15.044c.49 3.067-6.19 1.47-8.65 2.698-2.02-4.057 4.79-2.458 8.65-2.698Zm-208.62-6.66c-6.7.63-4.11-1.015-5.78-1.867-4.39 2.045-5.93 1.612-10.04-.099 2.69 1.697-1.18 2.355-.04 5.567-4.76-.882-15.58-.433-7.23 1.738-5.66.222-13.76-.972-17.26.803 2.62-4.567 10.05-.318 13.05-4.464-2.32-.023-5.03-.05-4.37-1.852 10.68.94 5.69-2.867 13.04-3.63-21 1.602-25.35-1.503-38.9 2.4 1.3-2.076-4.99-4.087-1.38-4.608 3.98 1.71-1.14-1.681-2.81-1.837 6.94 1.182 9.17-3.528 13 .129-2.46.81-7.73-.077-7.24 2.712 8.24.499 18.3-1.628 23.04 1.202-2.29-3.641 6.18-.217 5.81-2.726-2.56-.86-7.2-.35-8.61-1.894 3.23-.943 14.05-1.532 7.21 1.045 4.37.74 5.28-.922 8.63-.889.74 3.627-5.14-1.025-4.41 3.715 7.62-2.709 12.64-3.494 21.66-4.379-1.32 3.745.36 3.066 2.79 5.595-1.16.128-2.83-.028-2.84.946 5.4.471 7.37-4.102 11.47-1.695 1.37 5.72-13.53 1.258-8.66 4.507l-.13-.419Zm-73.36-1.7c2.69 1.418 10.02 2.604 5.74 5.623-3.6-.175-7.16-5.22-5.74-5.624Zm125.27-1.544c-1.81.122-.91.966-.02 1.81-5.68 2.449-12.37 2.243-13.03 3.628-7.7-2.999-8.21-3.004-18.65-1.994 5.97-5.925-7.17-4.525-8.55-8.436 5.67-.64 9.63 2.462 14.42-.83 3.47 1.286-1.57 3.463 1.39 3.77.39-1.248 2.33-1.507 2.85-2.755-1.16-.15-2.83-.028-2.82-1.002 4.24.32 4.89-.23 2.85-1.781 3.86.038 2.97-1.502 5.79.057.39-.692.01-1.809 1.43-1.795 1.14 2.656-2.08 2.346-1.46 4.579 6.3 1.315 16.49-.672 14.4 2.926-1.39-2.937-9.55 2.272-5.82 2.726 1.16.43 5.05-2.734 7.22-.903Zm109.29.109c4.37.6 12.37-1.13 14.41 1.117-3.74.659-2.74 4.426-7.25 4.521-1.26-2.518-3.43-4.627-7.16-5.638Zm-240.31-3.355c5.01.467 13.91-1.393 12.97 2.912-4.49-1.158-3.49 1.357-5.81 1.752.68-3.473-5.12-2.974-7.16-4.664Zm760.99 9.347c3.22-.385 5.16-1.619 5.82-3.7 3.86.873 9.91.516 8.59 4.678-1.8-.018-3.35.246-2.85 1.782-7.31-2.996-4.26 1.906-11.43-2.897l-.13.137Zm-614.26-7.059c-.02 2.784-5.04 2.317-8.65 2.698-1.25-3.63 7.6-.62 8.65-2.698Zm64.76-.332c-6.19.495-4.47-3.942-7.16-5.639-8.13 1.59-12.61-.82-18.67-.185-2.53-4.479 8.68-5.899 8.65-2.698.4-1.387 5.44-4.4 7.22-1.737-4.24-.738-1.7 3.462-1.44 3.743 2.32-1.23 4.91-2.317 5.83-4.535 5.02.189 5.38 3.254 10.01 3.857-.24-2.647 8.87.923 8.64-1.724-2.71-.027-4.76-.604-5.78-1.866 5.14.746 9.94-2.825 11.45 1.087-1.68.123-4.12-.18-4.39.931 9.88 3.438 21.11.07 28.83 1.26-13.45 7.104-30.24-1.274-46.12 4.136 5.16-1.34.87 3.21 4.35 2.827.26-.693.01-1.81 1.43-1.795 1.77 3.914-6.62 6.058-10.07 3.658 1.69-2.21 5.39 2.002 7.21-.903l.01-.417Zm516.52-5.044c-1.8-.018-3.35.245-2.85 1.78 5.17-2.036 7.19 2.3 11.47-.86 1.39 2.937-.04 4.175 5.77 1.867.51 1.257 2.05 1.83 1.39 3.771-7.97-1.331-16.98-2.116-21.58-5.78 1.93.018 4.41-3.715 5.8-.918v.14Zm-620.03-9.9c4.25.042 11.57 1.924 13.01.129.25.698 1.14 1.124 2.82 1.002-4.04 5.388-8.63-.086-18.69 2.598-.37-2.09.42-3.475 2.86-3.73Zm138.09 5.126c-5.65-1.03-14.94.687-11.44-1.923-.01 1.53 11.6-1.973 11.44 1.923Zm-109.28-2.057c-2.7-.027-4.75-.604-5.77-1.867 1.16-.127 2.83.028 2.84-.946 3.6-.103 5.92.476 7.19 1.88-3.09.527-4.61-2.69-4.38.932l.12.001Zm136.74-2.404 7.21.072c.49 2.788-5.29 1.479-5.83 3.7.41-1.805-1.65-2.104-1.38-3.772Zm481.94 4.774c2.44.442 3.74-1.354 4.37.044-.9-.01-1.67-.017-1.42.96 4.51-.095 8.62.085 10.03 1.909-3.86-1.291-11.07-.388-12.98-2.913Zm-837.14-16.643c-.79 2.219-6.21 3.279-10.05.875 4.77-.927 4.89.326 10.05-.875Zm28.82 1.26c-.39.692-.01 1.809-1.43 1.795-.25-1.116-1.54-.572-2.83-.028.4-1.806-1.92-1.829-2.81-2.812 5.41.054 4.11 1.015 8.63.086.24 1.116 2.55 2.113-.03 2.783-.25-.698.02-1.809-1.4-1.823l-.13-.001ZM2.18 29.379c1.806-.4 2.972-1.223 2.856-2.755 4.51-.373 5.006 1.72 10.032 1.073-.271 1.668-.927 3.053-2.864 3.73-6.668-2.989-4.108-1.293-10.024-1.909v-.139Zm2074.41 15.956c5.79-.5 7.3 4.387 11.44 1.922l-.03 2.784c-5.77-2.423-8.1-1.472-11.41-4.706Zm-70.51-5.292c1.66 2.104 9.53.095 10.02 2.883-2.95-.725-14.54-.562-10.02-2.883Zm21.63.214s-.25-1.116-1.41-.988c-2.33 1.647-11.84-.256-15.82-1.966-.14 2.365-5.68 2.31-5.79-.057 3.61.035 4.49 1.853 5.8-.917-1.15-.15-2.83-.028-2.82-1.002 4.6 3.525 20.21.478 20.04 4.791v.14Zm-46.01-8.806c4.37 1.017 10.56-.174 12.99 1.102-2.7.252.76 1.539-1.43 1.796-3.45-3.096-8.5.472-11.43-2.897l-.13-.002Zm63.38-4.94c-.87-3.906-4.12-.737-5.76-3.815 2.05.577 7.47-1.04 7.2 1.045-6.2 2.305 15.94 2.803 8.6 2.87l-10.04-.1Zm-87.76-4.627c.89 1.261 11.45.392 14.39 2.926-5.52-1.725-17.76-.176-14.39-2.926Zm7.22-.903c1.93.019 5.43-3.008 5.8-.917-3.22.107 13.23 3.75 7.18 2.855-5.4-.054-9.9-.516-12.98-1.938ZM-6.289-3.97c.675-3.613 18.575-4.27 18.665.184-4.245-.32-4.394 2.044-8.64 1.724.68-4.169-6.672-2.572-10.024-1.909Zm21.513-1.597c-1.803-.018-3.345-.312-2.817-1.837 3.72 1.567 5.03-1.064 7.2 1.045-1.42.404-4.798 4.128-5.808 1.752.901.009 1.674.017 1.425-.96ZM2069.47 4.76c2.82.724 11.95 2.207 7.16 4.664 1.32-3.884-8.1-1.054-7.16-4.664Zm-866.07-6.77c-4.49-1.157-3.48 1.358-5.8 1.753-9.5-3.017-16.71-3.785 5.8-1.752Zm35.93-1.453c-2.19.257-1.04 2.078-.02 2.784-4.51.094-10.55-.662-13.01.845 1.69-2.35 11.11-4.483 13.03-3.629Zm-25.87-.256c5.67-.222 13.77.971 17.26-.803 1.38 4.328-10.81-.247-11.48 2.67 1.8-.26 8.88.227 4.36 1.017-5.13-1.303-9.13-.647-10.01-2.883l-.13-.001Zm30.23 3.083c2.34-3.735 6.56-.213 10.07-3.658 2.41 4.2 9.53-1.02 11.43 2.897-8.24.753-16.22-.44-21.63.76l.13.001Zm38.88-.59c-.63-1.676-1.55.403-2.84.947-.25-1.116-1.54-.572-2.83-.028 2.09-4.016-8.63-.085-8.6-2.869 6.44-.91 13-.706 15.83.157-.9-.009-1.68.123-1.43.96.78.008 1.67.713 0 .974l-.13-.14Zm761.04 3.782c.87 3.766 10.02 2.326 12.96 4.721-5.53-.194-16.2-1.97-12.96-4.721ZM1358.8-4.227c-1.15-.15-2.83-.028-2.82-1.002l14.42.143-.03 2.783c-9.38-1.624-19.57.363-30.25.675-2.56-2.531-10.54-2.192-14.42-.143 2.22-3.319-4.89-.605-4.35-2.827 16.09-.258 27.94-1.532 37.45.371Zm-189.86-1.88c-2.17-2.806-6.43-1.039-10.04-.1-.11-2.507 2.46-1.785.03-3.758 3.6 1.01 8.39-2.7 14.4 1.952-2.83-.306-2.84 1.225-4.39 1.766v.14Zm-20.06-2.983c-.54 2.917-9.94 2.824-10.05.875-1.96 4.017-14.57 2.917-15.84.817 7.72.077 4.12.04 2.86-2.755 3.59 1.149 4.51-.373 5.78 1.031-1.16.128-1.68.819-1.43 1.795 5.16-1.062 8.5.085 4.4-2.74 8.88-.19 14.54.84 21.64-1.595.76 1.4 2.17 2.388 2.8 3.786-2.59 1.645-9.15 1.162-10.03-1.074l-.13-.14Zm61.93-1.196c-.91 1.522-6.82-.068-7.22 1.738 6.05-.08 3.47.452 1.4 1.823 2.57.582 8.5-1.03 8.61 1.06-8.25 2.006-13.39.841-24.47 1.567 1.2-4.581 7.35-.623 11.49-3.644-2.57-.443.65-.968 1.43-1.796-5.68 2.31-15.95-1.828-8.64 1.724-6.18.356-14.79-.981-18.67.79 7.24-3.965 26.18-5.17 35.94-3.402l.13.14Zm189.85 3.69c.88 3.35 6.44.064 8.59 3.843-7.59-.493-32.57.93-37.45-1.345.54-2.778 7.32 2.439 8.64-.889-1.81.26-8.88-.227-4.37-1.017 6.57-.492 6.56.621 7.19 1.88 1.93.02 1.3-1.657 2.85-1.781-.03 3.619 7.33 1.325 1.42.014 4.64-.79 4.49 1.436 7.19 1.88.4-1.944 3.88-1.77 5.82-2.725l.12.14Zm56.13.556c.25.698-.02 1.81 1.4 1.823.13-1.112.4-2.223 2.84-1.78-.15 2.364-2.72 2.895-.04 4.592-3.08-.727-10.26-3.582-4.33-4.636l.13.001Zm5.76 3.815c9.53-.601-3.05-5.04 4.43-6.498-.03 3.062 1.89 4.89 4.32 6.585.01-.974 1.81-.678 1.41.988-3.72-1.985-8.12.755-10.04-1.074l-.12-.001ZM-14.885-22.427c-1.683 1.096-5.41.364-7.2-1.046.901.009 1.673.017 1.424-.96 1.416.014 1.68-.68 2.84-.946.097 3.759 7.084-.348 10.017 2.883-2.077 2.067-3.466-1.148-4.385.93l-.015 1.81c2.85-2.2 12.349 1.096 7.24-3.687 5.413-.642 3.06 3.51 7.177 3.83-4.484-2.55 7.091-1.322 1.455-4.58l18.665.186c1.006 2.793 1.014 1.82-.04 4.592 1.158.151 2.832.028 2.824 1.003C8.63-17.323-1.66-18.4-17.997-19.814c1.806-.4 2.972-1.223 2.856-2.755l.256.142Zm110.783 6.664c-5.788-.614-4.372-.6-10.04-.1-1.13-3.35 10.831-2.119 10.04.1ZM1537.35-3.293c2.19-.396 3.62-1.356 5.81-1.752.24 1.533 10.52 4.001 5.77 2.84-5.92-1.032-8.89.33-11.45-1.087l-.13-.001ZM573.49-14.65c4.263-1.768 7.087-.765 10.055-1.71-.398 1.388-1.859 6.662-4.408 3.714 4.015-2.883-4.508.234-5.777-1.867l.13-.137Zm517.87 2.346c-4.63-.046-7.48 2.292-8.6-1.895 3.6.036 6.95-.07 8.61 1.06 2.24-5.546 23.81.653 33.12-3.43.74 3.487 5.65.752 10.04.1-1.7 3.044 9.93-2.13 10 3.856-2.7-.027-3.08-.726-1.4-1.823-4.64.928-2.7-.166-4.39 1.766-10.69.312-39.88-3.179-47.52 2.313 1.54.99 12.35.679 8.61 1.895l-20.08-.2c-.35-4.874 11.19.807 11.47-1.695-1.8-.157-.89-.983.01-1.81l.13-.137Zm33.05 4.085c-6.16-2.01-18.04 2.048-18.65-1.994 8.35 2.588 12.64-1.963 18.65 1.994Zm92.06-.897c.29-4.59 16.64-4.568 20.09-1.61.02-1.532 1.18-2.355 2.86-2.756 1.52 2.381 5.9 2.007 10.03 1.073-8.15 4.513-24.74 2.957-33.11 3.43l.13-.137Zm-171.18-4.48c1.4 1.267 2.32-.394 4.36 1.853 8.4-3.258 24.87-3.233 31.67-.66-15.97 1.511-29.1 1.381-37.46.602 2.7-.251-.76-1.538 1.43-1.795Zm304.95 2.047c-7.09.904-10.16-1.214-13.02 1.68 5.4 1.585 13.03-2.933 13 1.103-4.26.932-27.44 1.538-30.25-.3 7.45 1.327 4.14-2.185 5.81-2.726.64 1.12 1.53 2.103 2.81 2.812 2.45-.81 7.73.076 7.23-2.712-8.37.195-13.52 1.119-17.24-.171 1.8.018 3.34-.245 2.84-1.781 14.42.143 18.93-.23 27.3-.704-.01 1.253.63 2.094 1.39 2.797l.13.002Zm1.44-2.77c.63 1.677 1.55-.402 2.84-.946-.67 2.916 6.56.761 7.19 2.855-3.88 1.493-8.23-1.89-8.65 2.698 1.93.02 10.43-.036 5.78 1.032-3.34-.312-5.53.084-7.21.902 1.95-2.903-3.56-5.602.05-6.402v-.139Zm-1219.927-9.3c1.021.984 4.764-.092 5.769 2.84-5.134-1.86-2.822-1.28-8.625-.085 2.34-2.621-6.157-2.566-5.784-1.031.772.007 1.667.712-.008.974-.117-1.393-3.599-.732-2.809-2.812 8.379-1.309 11.556 3.594 11.457.114ZM1367.48-10.404c4.37 1.296 5.15-.367 11.46.113-.67 3.334-13.28 1.817-11.46-.113Zm67.58.67c-15.08 2.494-39.51-1.088-54.72 1.267 21.66-3.683 39.66-1.835 54.72-1.268Zm-130.89-3.107c-5.96 4.534-22.8.61-37.49 2.413 9.58-5.334 23.31-.187 37.49-2.413Zm-158.2-1.567c2.44-.393-.25-1.255.02-2.783 5.79-.082 6.43.342 2.82 1.837 8.13-2.703 8.24-.058 17.25-.803-1.84 4.992-13.28 2.93-20.09 1.61v.14Zm159.74 1.582c6.7-.072 8.24-.057 11.46-.86-1.31 3.327-9.16 2.693-11.46.86Zm-109.29-1.082c-7.56-2.998-22.29 2.841-28.81-2.095 6.69.623 14.03.139 17.26-1.638a7.153 7.153 0 0 0 2.81 2.811c-1.63-5.583 6.42 1.734 4.4-2.74 4.13-.794 3.72 1.29 7.2 1.046.01-.974 1.17-1.102 1.43-1.796-1.67-.016-2.2 1.37-2.83-.028 1.93-.259 2.71-1.225 5.8-.916-1.58 3.881 7.31 3.552 8.6 2.869-2.75 5.122-16.2-1.831-15.86 2.626v-.14ZM31.099-25.451c-4.372-.6-12.367.99-14.409-1.118 6.955-.348 8.122-1.311 14.409 1.117ZM1393.51-13.765c2.69 1.836-11.59.442-15.84.817 0 .557-.26 1.111-1.42.96.55-3.891 12.11-.715 17.26-1.638v-.14Zm-1274.599-13.6c-7.338.066-10.568 1.426-14.432 1.666-.371-1.813 1.946-1.79 2.856-2.755-1.156-.29-2.832-.028-2.824-1.003 8.869 1.62 14.809-.549 21.61 2.024-1.931-.02-16.506 3.316-7.208-.072l-.002.14Zm1120.659 11.1c-6.83.629-18.29 1.072-24.47 1.568-.76-1.4-2.17-2.388-2.8-3.786 6.05-.497 3.83 3.378 7.21.071 3.33 1.425-2.86 2.895 2.8 2.812 2.73-2.618 11.61-2.112 17.26-.804v.14Zm163.98 2.6c-1.67-.017-2.45 1.506-7.21.902 4.66-3.712 21.64-1.456 7.21-.903Zm28.85-.69c2.06.021 11.71-.3 7.2 1.046-2.97.528-9.39-1.206-10.05.875-6.04-1.73-13.52-.273-17.25-.17 1.45-4.023 14.04-.697 20.1-1.611v-.14Zm-220.06-9.556c2.59-1.644 8.12-.476 10.04 1.074-5.53-1.03-9.04 2.416-10.04-1.074Zm830.15 7.249c3.21.032 14.03-.279 8.6 1.895-3.97-1.432-5.04 2.733-8.6-1.895ZM111.918-37.595c9.918-.598 22.775 1.339 5.785 1.032-.137.972 2.047 1.412-.016 1.809 1.043-1.521-6.809-1.599-5.792-.058 1.544.016 1.147 1.264-1.425.96-.242-1.811 1.692-2.07 1.448-3.743Zm994.122 9.847c-.63-1.12-1.52-2.102-2.8-2.811-.66 1.803-5.55.641-4.41 3.714-13.77-.415-21.75-1.19-35.93.619-1.53-.85-.35-3.344-4.35-2.827-1.67.123-2.19.952-2.85 1.781 1.68.017 3.24-1.638 4.38.043-1.94.956-5.28.922-7.22 1.738 3.91-5.39-2.05-1.134-4.34-4.636 7.85-.2 30.91-2.199 40.29.4-1.67.122-4.12-.18-4.38.93 1.67-.4 13.37 1.107 13-.845-.12-.697-21.12 1.46-5.78-1.032 15.73-2.489 32.44-.235 41.71-.56-1.67.4-3.22.941-4.39 1.765 4.11.876 3.75-1.216 7.22-.903-1.45 3.605-22.8 2.001-20.08-.199-1.33 4.72-4.23-2.686-7.22.903.37 1.674 2.32-.534 2.83 1.002-2.98 1.641-2.83-.724-5.81.917l.13.001Zm245.97 5.22c-8.11-.636-20.09 1.054-25.87-1.23 8.11.637 20.09-1.053 25.87 1.23ZM685.901-32.883c-6.852 3.412 12.353.68 7.185 2.855-6.689-.623-17.26 1.082-21.617-1.188 3.616-1.356 8.256-2.006 11.488-3.644 1.908 2.663-7.615 2.29-2.864 3.73 2.956.585 4.926-3.988 5.808-1.753Zm345.229 3.42c6.3 1.315 13.02-1.959 15.84.157-2.34 2.621-16.36.951-15.84-.157Zm328 2.275c-10.19 1.848-32.73 3.155-40.3.575 4.52-1.347 22.77 1.617 18.69-2.599 7.44 2.858 13.25.828 21.61 2.024Zm-661.764-6.555c-2.851 2.198-6.81-1.599-10.049.874-1.776-3.08 9.802-2.13 10.049-.874Zm571.184 1.065c8.5-.612 13.38.55 18.67-.79-23.54-2.32-42.75 1.525-67.59.305-.52 1.247-1.68 1.514-.02 2.783-10.57 1.705-18.01-1.987-24.44-2.051-.65-.006-5.56 2.868-7.24 2.712-6.04-.617 1.82-1.374-1.41-.014-3.75 1.494-16.86-1.141-11.44-1.923-2.97.527-3.1 1.361-1.44 2.77-11.19-.807-29.74-.017-35.92.618 2.47-3.455-.25-1.812-2.8-3.786 56.27-1.948 84.09-3.203 156.81-2.204-1.16.127-2.83-.028-2.84.946 9.27-.047 30.14-1.79 38.86 2.194-10.79-2.612-42.88 1.802-58.95-1.558l-.25-.002Zm94.96 4.698c3.21.728 11.22-1.559 10.03 1.909-3.73-.455-7.85-.495-10.03-1.909Zm-339.57-3.363c5.44-3.983 10.57-1.01 20.11-2.585-2.22 3.458-16.25 3.18-20.11 2.585Zm86.45-8.33c-2.7.112-3.21-1.006-5.78-1.032-.02 1.67.36 2.927 1.38 3.772-23.68-.096-38.37.872-54.71.432 1.16-.267 2.83.028 2.84-.946-7.09.347-10.21 4.214-11.47.86-4.41 3.854-20.72.074-25.9 3.502 2.31.023 5.02.05 4.36 1.853-4.25.236-5.01-1.86-7.19-2.855-20.973-.765-1.16.127 4.4-2.74-20.865 1.742-38.357-.102-54.718 1.267 1.052-2.634 4.145-3.021 1.455-4.579-1.057 3.191-9.903-1.072-11.448-1.087 18.932-.926 32.196-1.49 46.091-.518-3.354.802-13.642-.414-17.272 2.612 17.393-1.637 23.942-.18 37.462.372-1.78-2.941 4.64-.65 2.86-3.73-4.53 2.321-17.12-.726-21.64 1.595 2.61-4.15 16.36-1.09 21.66-3.544-15.96-.436-35.911-1.051-51.766 1.297.663-2.22-2.557-1.974-1.376-4.607 11.722-.858 18.693-3.155 27.289.27 17.553-5.671 24.443 1.495 40.323-3.358a7.152 7.152 0 0 0 2.81 2.812c-1-4.186 3.98 1.43 2.85-2.756 4.65-1.067 1.14 2.934 5.78 1.867.27-1.11-.23-2.647 1.44-2.77 6.81 1.877 31.44-3.029 40.29.4-1.8-.018-3.35.245-2.85 1.78 11.08-.307 17.24 1.007 23.06-1.58-5-2.416-15.73 2.628-18.65-1.994 23.8 1.488 52.82-4.349 76.2.755-1.12-3.77 12.64-2.798 14.43-.832 1.67-.123.91-.965.01-1.81 5.41.054 4.63 1.438 7.22-.902l-.03 3.758c-2.19.117-5.28-.33-5.8.916 4.89.467 8.24-.196 7.24-3.686l11.46.114c.21 5.012-7.47-.492-7.25 3.686 4.38.6 10.85-3.79 14.43-.831.4-1.667-6.8-2.99-2.8-3.786 2.68 2.532 7.59.771 8.63-.889 2.42 3.225 9.67-1.435 11.44 2.897-3.48.522-10.42-1.217-11.47.86 1.8.158.89.984-.01 1.81 3.6.314 9.68-3.245 7.2.071 8.65-2.558 33.72 1.03 41.73-2.37-1.67-.156-4.12.099-4.36-1.018 2.46-1.645 6.82.346 8.6 1.895.79-1.384 2.21-2.205 4.4-2.74 2.56 2.53-6.32 1.747-1.43 2.77 14.85-5.7 21.09 2.296 46.07 1.43.27-1.389-.49-3.484 1.45-3.743 2.66 4.758 13.09 4.861 18.64 2.968-10.17-.657-7.46-.77-12.99-1.938-.01.974 1.15 1.125 1.4 1.823-3.6.104-4.49-1.436-5.77-2.84 30.25.299 52.93-1.703 77.74 1.744 2.75-4.566 23.68 1.209 28.85-1.524-9.45 6.587-36.42-.36-50.36 3.26-.1-3.203-2.06-.3-5.78-1.867.62 2.929-3.62 2.608-5.82 3.7-2.03-3.5 6.44-.076 4.41-3.714-9.8 1.99-24.32-.937-28.86 2.497 1.67.156 4.12-.098 4.37 1.018-19.84 1.334-56.8 2.917-84.84.969-1.01-2.515 6.81.763 5.8-1.752-17.12.666-32.94-.883-47.52 2.313 2.97-1.084 6.81 1.46 2.82 1.837-.63-1.537-1.81.122-4.38-.043-3.21-1.424 1.82-2.209-1.39-2.798-2.09 2.903-7.5 3.545-7.22.903-1.31 2.353-7.36 2.294-8.62-.085-.66 1.107-1.56 2.072-2.86 2.755-1.39-2.797-2.31-1.136-4.37-.043.27-1.946-1.14-2.934-4.36-2.827 2.95 2.117-.66 2.081-2.84.946-.01 1.114 1.79 1.27 1.39 2.798-5.16 1.34-.87-3.21-4.35-2.827-2.59 1.923-12.88.847-21.65 2.57.01-1.253.66-2.082 1.44-2.77-2.2 1.37-5.68 1.892-8.65 2.698-2.17-1.274-6.77-5.774-8.6-1.895 2.31.023 5.02.05 4.36 1.853-10.43.314-23.42-1.068-31.68.66.4-1.805-5.24-4.506-7.19-1.88 1.67.155 4.12-.099 4.37 1.017-5.17 1.758-10.2 2.683-14.42-.143 14.3-1.25-18.63-4.499-11.47 1.696-11.96-1.232-22.42 2.7-30.25-.3 2.16 3.362-4.9.509-4.4 2.74 11.09-2.117 27.92 1.53 34.51-1.467 1.4 2.52 11.85-.718 11.43 2.897-6.44.632-13.1-3.192-14.43 1.666 6.32-.911 9.41-.88 17.25.171 1.57-2.35-6.66-3.685.03-3.757-.65.689 10.69.105 7.2 1.88l.12.14Zm-542.36 1.03s-.248-1.116-1.407-.989c-1.931-.019-1.302 1.658-2.848 1.782-2.668-4.063-5.875-5.487-8.6-2.87-.242-1.811 1.691-2.07 1.448-3.743-5.655-1.17-7.989.895-11.441-1.923 10.692-.868 9.003.925 20.08.2.369 2.09 3.055 4.066-1.455 4.578.149-2.365 2.728-2.896-1.384-3.772-10.315 1.986 3.864-.24-1.448 3.744 3.605.036 4.491 1.715 7.209.071-.528 1.526 2.168 2.388-.024 2.784l-.13.138Zm70.549-.276c-4.644 1.068-9.26-1.066-13.017 1.68 1.188-3.467 8.137-3.12 13.017-1.68Zm446.011 5.393c-4.25.793-10.04.596-14.41-.143 2.2-1.092 12.37-1.687 14.41.143ZM570.999-39.59c2.089-3.46-3.975-1.849-2.793-4.621 6.549 2.013 8.016-3.957 11.465-.86-7.591-.493 3.325 2.538-1.44 2.769-.383-.282-5.391-1.863-7.208-.072 4.088 3.66 6.553 1.457 15.833.157-.287 3.477 1.156.29 4.368 1.018l-.015 1.809s-.267 1.11-1.425.96c-.1-3.341-11.462.583-18.656-1.159l-.129-.001Zm362.475 4.565c-1.777-2.94 4.64-.65 2.864-3.73-2.843 1.224-5.787-.753-10.049.875-2.025-4.057 8.624.085 8.648-2.698-.772-.008-1.667-.713.009-.974.495 2.231 4.487 2.132 5.76 3.815-4.779 1.9-1.294.822-.016 1.809-2.588 1.644-4.238-1.156-7.216.903Zm15.88-5.41c-4.885-.745-6.827.489-5.825 3.7 2.845-1.503 1.803.018 5.793.057l.024-2.783c5.136 1.582 6.314-.773 10.032 1.073-9.017.607-6.08 3.42-17.273 2.613 3.77-4.277-7.952-3.42-2.784-5.595.365 2.509 13.405-1.955 10.032 1.074l.001-.14Zm149.546 5.239c1.13 3.212-11.86 1.97-13.01.845 5.29-1.617 7.97.636 13.01-.845Zm241.75.585c6.18.479 15.72-1.375 15.81 2.94-6.56-.064-14.8-.146-15.82-1.13 1.67-.123.91-.966.01-1.81Zm74.78 2.55c-9.38-2.041-35.68 1.874-44.53-2.25 8.87 2.036 33.37-2.593 44.53 2.25Zm46.09-.517c-10.82.727-32.59 2.46-35.92-.356 10.18-1.291 18.93.187 35.92.356Zm-867.456-9.568c-.392.693-.015 1.81-1.431 1.796.784-1.384-1.633-4.749 1.455-4.579.252.698-.015 1.81 1.401 1.823 1.93.02 3.221-.385 4.384-.93-.401 1.805 1.656 2.104 1.384 3.771l-2.832-.028c-.901-.009-1.673-.017-1.407-.988 3.49-1.636-1.551.68-2.824-1.002l-.13.137Zm17.273-2.612s7.333.49 2.808 2.811c.661-2.08-10.71 2.956-7.208-.071l2.831.028c.267-1.11-.234-2.647 1.44-2.77l.129.002Zm5.784 1.032c4.892.048 16.108-1.929 14.402 1.952 1.452-4.3 14.179-2.226 11.448 1.087-.761-1.4-2.17-2.248-4.353-2.827.375 1.257 2.304 1.554 2.808 2.812-9.116-2.874-15.447-.153-21.617-1.188 4.787-2.876-2.447.114-2.817-1.838l.129.002Zm307.904 3.05c-2.705.251.76 1.538-1.431 1.795-1.005-2.933-17.908 1.632-15.833-.157 5.422-1.756 14.059-3.201 17.264-1.639Zm276.265-.047c4.9-.648 8.22 1.473 1.41.988l-13.01-.13c-8.62.472-19.7.64-27.3 1.54.77-.132-22.78-.922-28.84.688 22.81-3.532 38.51-2.958 67.61-3.088l.13.002ZM861.742-46.87c.242 1.812-1.692 2.071-1.448 3.744-7.978-.497-12.746.152-17.217-3.929 4.622 1.438 10.435-.87 7.193 1.881 4.492 1.576 5.951-3.42 7.217-.903-1.416-.014-1.817 1.652-.016 1.81 1.424-.96 2.848-1.782 4.4-2.74l-.129.137Zm13.001.13c.247 1.115 1.54.571 2.831.027.242 1.812-1.691 2.071-1.448 3.744-4.508.373-5.647-2.005-8.624-.086.567-6.118 3.349-.245 7.232-2.712-.772-.007-1.667-.712.009-.974Zm79.164.783c.397-1.248 10.313-1.707 14.441-2.64-.543 3.196-4.39 1.487-.033 3.757-1.802-.018-3.349.246-2.847 1.782-13.488-3.335-32.061.795-46.067-2.266-.013 1.53-1.179 2.354-2.856 2.755-13.884-2.225-21.757.202-34.489-1.316 5.194-5.237 18.68-1.624 28.849-1.523 10.942.108 21.522-2.71 31.674-.661-.772-.008-1.679.68-.008.974l2.832.028c-4.107-1.432 2.87-4.425 4.392-1.766-6.21 3.558 1.3-1.518 4.368 1.018l-.256-.142Zm-679.036-3.942c-4.371-.6-12.368 1.13-14.408-1.117 4.371.6 12.368-1.13 14.408 1.117Zm21.634-.76c-2.704.112-9.546 2.271-11.456-.114 2.574.026 7.997-1.87 11.456.114Zm-136.688-3.164c-7.843-1.191-15.6 2.769-21.625-.214 7.2 1.046 21.133-2.435 21.625.214Zm122.326-3.381c-1.296.961 23.026 2.037 30.25.3-10.452 2.819-33.387 5.236-41.715.56 7.449 2.023 9.275-.743 11.465-.86Zm178.386 4.55c4.238 1.156 4.889.327 8.632-.888l-.015 1.809s-.267 1.11-1.424.96c.014-1.67-7.224 1.738-7.193-1.88Zm-96.382-4.712c1.265 2.657 3.615-1.217 7.209.071.368 2.092-.416 3.476-2.864 3.73 6.481-5.225-9.015.467-4.345-3.801Zm166.833.678 4.377.044c1.008 2.515-2.848 1.78-2.864 3.73 1.157.15 2.832.027 2.823 1.001l-4.376-.043c1.053-2.773 1.045-1.799.039-4.593l.001-.139Zm-182.642-3.618c2.187.16 5.28-.227 5.784 1.031-6.96 1.045.468 5.572-7.24 3.686 2.069-1.093 3.248-3.447 1.455-4.578l.001-.14Zm46.098-1.353c.252.698-.015 1.809 1.401 1.823.005-.557 1.168-1.102 1.416.014-4.644 1.068-11.967-.675-13.033 3.629 9.277-1.022-3.223.525-4.392 1.766-3.598-.732-.494-2.51-7.209-.072l.024-2.783c4.516-1.208 7.976.636 10.049-.875-33.584-1.863-1.665-.99 11.488-3.644l.256.142ZM1608.61-42.255c-9.78-.097-14.01-1.948-24.45-.242.79-2.915 22.8-2.419 24.45.242ZM231.934-56.866c-2.06-.02-11.718.301-7.2-1.046 1.674-.123 4.118.18 4.385-.93-3.481.521-10.418-1.218-11.465.86 1.672.156 4.12-.099 4.368 1.017-4.12.099-7.852-.077-7.185-2.854 11.714.116 13.012-1.124 21.658-3.544-1.064 4.026 2.838-.668 2.816 1.837-1.677.401-3.226.943-4.392 1.766 4.878 1.719 11.475-1.974 14.402 1.952-8.36-.918-11.976.438-17.225-2.954.107 2.506-2.461 1.785-.032 3.758l-.13.138Zm18.68-1.625c2.191-.256.271-1.528-1.401-1.823-4.253.654-13.38-.968-4.368-1.018.901.01 1.674.017 1.424-.96 2.705-.112 3.21 1.006 5.785 1.032 3.631-3.166 9.785-.182 15.856-2.627 1.385 3.633-7.984.339-7.24 3.686 8.622.364 12.1.12 2.808 2.812-3.452-2.818-9.667 1.435-12.993-1.103l.129.001Zm17.249.171c5.423-1.895 15.483-4.161 20.081.199-6.667-3.267-16.362 1.508-20.081-.199Zm61.963-4.953c.756 1.956 2.172 1.97 4.368 1.017-.273 1.807-3.785 6.087-5.824 3.7 1.826-2.765-10.97 3.232-8.617-1.06-2.729 3.036-14.295.694-21.633.76-4.248-.041-9.558 3.664-8.616-1.059 3.48-.522 10.417 1.217 11.464-.86l-7.208-.072c.011-1.253-.626-2.094-1.392-2.798 5.249 3.393 6.965-1.6 12.985 1.939.285-3.199 19.077-2.874 20.096-1.61-3.73-.316-6.181.216-5.816 2.725 2.595-2.34 8.865 2.037 10.056-1.71-.772-.007-1.668-.712.008-.974l.129.002Zm-198.49-1.967c3.861.038 2.947 1.56 5.792.058l-.015 1.809c-.92 2.218-7.213.485-5.777-1.867Zm7.208.072c4.888.466 8.113-.337 11.465-.861l-.016 1.81s-.267 1.11-1.424.96c-2.036-2.805-8.269 3.536-10.025-1.91Zm199.906 1.98c.235 2.647 9.919-.737 10.025 1.909-4.766.37-13.139.983-10.025-1.91Zm106.469-.755c2.188.161 5.28-.226 5.785 1.032-4.005 1.63 4.487 2.132 5.792.057-1.157-.15-2.832-.028-2.823-1.002 1.93.019 1.301-1.657 2.847-1.781-1.181 2.633 2.039 2.386 1.377 4.606-3.856-.734-11.229 3.369-8.633.89 3.612-.94-5.007-1.581-4.345-3.802Zm-95.012.868s.267-1.11 1.424-.96c-.538 2.64 6.685 1.04 8.616 1.06 1.129 3.49-6.832 1.046-10.056 1.71l.016-1.81Zm1097.623 9.899c-4.01 2.326 12.36-.434 12.99 1.938-1.55-.154-16.36 1.508-17.24-1.98 2.45.442 3.75-1.355 4.38.043l-.13-.001Zm474.72 5.677c-2.83-.307-2.84 1.224-4.39 1.766.4-1.806-1.91-1.829-2.81-2.812 5.03-.228.02-2.505 2.86-2.755 4.61 2.411 16.97 2.395 18.63 3.942-.9-.009-1.67-.016-1.42.96 1.15.151 2.83.029 2.82 1.003-7.19-1.603-16.69-4.759-15.82-1.966l.13-.138Zm-607.04-6.988c.74 3.348-12.89 1.96-14.43.831 6.06-1.47 8.5.085 14.43-.83Zm-201.46-1.021c-6.31-.62-16.23 1.092-20.08-1.173 6.31.619 16.23-1.092 20.08 1.173ZM132.655-68.985c-13.387-.132-28.61 3.614-41.715.561 13.13.13 26.795-2.1 41.715-.56Zm169.777 2.656c23.299.231-9.291 2.553-14.417-.142 7.859-.758 6.956-.488 14.417.142Zm1258.798 10.66c4.87 1.719 9.4-.602 14.4 1.117-1.16.128-2.83-.028-2.84.947.78.007 1.67.712 0 .974-.62-2.93-13.02 1.402-11.44-2.897l-.12-.14Zm46.09-.517c-.9-.01-1.68-.017-1.43.96 1.16.15 2.83.028 2.83 1.002-4.51-.184-10.56.452-13-1.103l-.02 2.783c-6.55-1.595-9.54 1.02-12.99-1.938 2.58-.53 8.49 1.198 8.64-.888-5.03.367-15.96-.298-11.44-2.897.24 2.09 3.62-1.217 7.21.071.38.7-.01 1.81 1.4 1.823 1.31-2.492 6.42 1.873 2.85-1.78l7.21.07c-.95 5.42 7.47-.204 8.61 1.895l.13.002Zm-73.39 1.082c-9.26-.927-24.09 1.71-28.82-2.095-7.5 4.101-19.56-.75-25.88.718 6.11-6.62 20.72.205 30.26-1.51 2.97-.527 1.46-4.578 5.81-1.751-5.03.924-2.58 1.505-4.41 3.714 2.71-.39 8.62 1.338 7.23-1.738-1.8-.018-1.94 1.233-4.39.931-1.49-5.582 17.9.177 8.62 1.06 6.05-.358 8.26-3.12 11.45 1.087l.13-.416Zm17.28-3.587c-1.67-.155-4.12.099-4.37-1.017 4.52-.93 3.22.032 8.63.085-3.78 5.252 3.07 1.84 4.33 5.61-10.55-.8-26.67 2.102-27.25-4.863 1.3-1.935 11.71-.301 7.2 1.046-7.73.62 3.87-1.214 11.46-.86ZM79.516-72.295c12.882-.986 26.425-4.053 37.467-.603-20.849-.763-22.819 3.81-37.467.603Zm10.095-6.302c2.973-1.363 5.398 1.028 7.2 1.045-1.677.401-3.226.943-4.392 1.766 1.158.151 2.832.028 2.824 1.003-6.044-.756-5.666.222-8.609-1.895-.01 1.252.626 2.094 1.392 2.797-3.344-.311-6.17-1.035-7.184-2.855 7.594.076 1.16-.127 1.44-2.769l4.376.043c-1.051 2.495 2.945 1.839 4.353 2.827.008-.974 1.168-1.102 1.431-1.795-1.673-.016-2.2 1.37-2.832-.028l.001-.14Zm-7.247 4.521c-4.888-.466-2.294-2.806-5.793-.057-.616-3.208-3.082-.866-7.2-1.046.401-1.805-1.915-1.828-2.808-2.811 5.926-.498 7.436 3.553 10.04.1 1.273 1.682 5.265 1.582 5.76 3.814ZM1431.76-60.709c6.84-1.88 11.06 1.501 18.68-.79-1.48 6.806-12.24 1.271-18.68.79Zm21.64-.76c3.84 2.404 11.83 1.23 24.43 3.026-1.16.127-1.68.818-1.43 1.795-6.67-2.989-14.81.967-27.27-2.08 3.34.312 1.56-2.629 4.4-2.74l-.13-.001Zm120.84 4.955c-5.53-1.307-8.1-1.472-15.84-.157l.03-2.783c7.59.214 15.7.294 15.81 2.94ZM52.273-77.993c-1.565 2.35 4.339 4.497-.047 5.567-.347-4.596-5.53-.611-5.777-1.867 1.045-1.798 4.394-2.044 5.824-3.7ZM1521.1-59.685c3.61-.66 7.99-1.034 11.45.114-4.38-.044-7.1 2.017-11.45-.114ZM98.348-76.562c5.439-3.843-6.29-2.15-2.8-3.786 4.627.881 5.413-.781 7.224-1.738-.551 4.17 6.301.759 1.368 5.581 1.804-.121 2.973-1.362 2.824 1.003-5.147-.33-3.454-2.54-8.616-1.06Zm1535.082 7.83c-1.04.685-8 2.008-8.63-.086 4.51-.234 5.57-3.146 8.63.085Zm69.05-5.72c-6.31.356-7.2-1.323-11.46-.113-1.52-2.938 13.16-2.792 11.46.114Z"/><path d="M61.81-49.087c6.29 2.15-1.38-4.19.032-3.758-.502-1.397-2.581.81-2.823-1.002 1.005 2.933-5.4-.75-2.856 2.755-1.9-3.498-10.911-3.587-17.24-1.145 1.647 3.079 7.616-2.43 5.768 2.841 4.5.74 19.977-2.725 17.25.171l-.13.138ZM18.933-78.184c3.605-.103.412-3.058.032-3.758-4.27 2.463-10.586 3.514-14.473 6.399 6.684 1.18 11.52-7.402 14.441-2.64ZM656.026-46.959c1.421-.543 1.563-2.072 4.392-1.766-.376-1.117-2.823-1.002-2.832-.028-1.416-.014-1.149-1.125-1.4-1.823-2.832-.028-1.824 2.487-5.808 1.752-1.051 2.495 6.828-.629 5.777 1.866h-.129ZM1103.66-65.63c3.24-2.194 5.27 1.584 15.82 1.967.01-.835-1.8-.714-2.82-1.002.01-1.531 1.05-2.356 2.85-2.756-5.39-2.002-10.56.73-15.81-1.966 2.43 1.833-.14 1.112-.04 3.758Z"/><path d="M1135.2-65.317c4.26-1.906-10.3.455-7.18-3.829-2.58.67-.27 1.668-.02 2.783l-2.83-.028c-2.32-.3 1.3-1.657-1.4-1.823-2.57-.304-2.97.806-1.43.96-.26 1.111-2.58.81-4.38.931 4.74 2.552 10.54 1.496 17.24 1.145v-.139ZM952.499 103.931c-1.566 2.49 6.715-2.439 11.472-1.696 3.636-3.722-8.634 1.028-11.472 1.696ZM194.339 94.472c-8.996-1.759-13.779.56-20.065-2.008-.293 4.173 14.777 3.209 20.065 2.008ZM778.483 100.259c3.234-1.917 12.742.265 13.033-3.63-2.723 2.2-11.846.301-13.033 3.63ZM181.522 87.943c1.674-.123.78-.967.008-.974.144-1.808 4.753 1.16 8.624.085-1.783-2.244-13.108-2.635-8.632.889ZM2171.1 103.058c-.22-4.456-10.15-2.884-12.96-5.696-2.35 4.014 7.57 3.416 12.96 5.696ZM1578.53 88.837c2.32-.255-1.27-1.683 1.43-1.795-3.33-2.26-6.68-1.18-4.33-5.61-6.57 1.187-.3 5.147-11.49 3.644 2.17 2.666 7.82 3.975 14.39 3.9v-.139ZM1470.72 80.392c.63 1.955-2.07 1.79-4.39 1.766.89 1.958 8.88.924 10.04.1-1-3.49-4.77.649-5.77-2.84-1.67.122-.78.966-.01.973l.13.001ZM2090.64 88.343c-18.14-1.294-10.52-4.976 0 0ZM2070.58 85.36c4.89.188-9.51-1.486-12.99-1.938.49 3.067 8.23 1.474 12.99 1.938ZM2190.03 87.518c-3.72-1.568-8.22-2.865-14.4-2.927 4.11 1.433 8.87 2.315 14.4 2.927ZM2056.17 84.382c-15.68-3.217-23.66-3.714-41.67-4.17 12.97 3.19 29.19 3.49 41.67 4.17ZM2041.85 73.106c-5.38-3.95-25.1-1.223-8.63-.086 4.76.326 3.75-1.215 8.63.086ZM2075.08 70.651c1.68-.122.78-.966.01-.974-.5-1.814 6.58-1.327 4.37 1.018 2.22-4.154-8.21-3.84-15.79-5.724 1.78 3.08 11.58 1.367 11.41 5.68ZM2152.85 53.884c-1.02-.706-2.17-2.526.02-2.783-1.77-3.219-9.24-2.736-11.4-5.68 1.94-1.651 6.41 2.15 10.04.099-2.3-1.971-7.71-1.886-7.16-5.638-5.28-.053-13.02 1.263-10.08 3.658-5.93.776-9.25-2.319-13-.129-.66 2.499 7.86-.618 7.2 1.88-2.71.53-33.1.786-11.48 1.697 7.99-.478 24.17 4.275 35.86 6.757v.14ZM2076.82 32.81c-.66 1.803 7.16 5.36 8.58 5.653-1.67-.295 18.4.6 5.81-2.726-2.69-.723-9.91.597-14.39-2.927ZM2088.26 34.733c2.19-.535.01-.974-1.41-.988-1.91-2.524-4.85-4.363-10-4.692 6.42 2.29 4.6 4.5 11.41 5.68ZM2075.77-9.79c-1.16-.151-1.41-.989-2.83-1.003 3.62-1.634 2.34-1.647-1.39-2.797 2.96.307 1.18-2.076 5.82-2.727-3.32-3.234-5.17 2.176-10.05.875-3.74 1.216 7.72.633 4.34 4.636-1.03-.706-9.89-2.603-8.64.89 5.81-1.196 8.61 2.729 15.82 1.965.15-2.504-2.43-1.833.03-3.758-.75-2.651-2.2 1.51-2.84 1.782l-.26.136ZM1032.89-39.468c1.65 2.8 6.83-.489 2.85-1.78 5.16-.924 16.72 2.252 17.27-1.64-8.9 1.304-17.39 1.081-25.89.719-1.57 3.046 12.23.4 5.77 2.84v-.139ZM1074.61-40.029c-.01.835-1.81.678-2.84.946 3.21 1.146 9.52.651 13 .13-1.27-2.24-10.04.178-11.44-1.924-2.19.535-.01.975 1.41.989l-.13-.14ZM86.284-50.793c1.276 1.404 2.191-.257 5.784 1.031.269-1.25-7.321-1.882-2.808-2.811-1.646-3.218-15.464 1.934-10.025-1.909.265-.832-.507-.84-1.407-.988l-2.832-.028c.76 1.4 2.168 2.387 2.8 3.786 4.255-.793 10.95-1.005 8.616 1.06l-.128-.141ZM2034.16-36.926c-3.85-.873-2.6 3.175-7.22.903-3.87 1.631 4.87 2.97 7.18 3.829.27-.833-.51-.84-1.41-.989.92-1.243 3.11-1.639 5.81-1.751-1.02-.846-2.56-1.418-4.36-1.853 1.44-2.63 3.85 1.43 5.8-.917-4.62-1.16-9.99-5.527-14.38-3.9 4.75 1.021 9.11 2.874 8.58 4.678ZM702.004-49.287c.632 1.398 1.806-.4 4.376.043-.251-.698-1.407-.988-1.4-1.823 3.868-.658 2.816 1.837 5.777 1.867 3.48-.523-3.717-1.847-2.8-3.786-4 1.074-6.066 1.888-10.048.875l-.024 2.783c.268-1.25 8.764-1.166 4.376.043l-.257-.002ZM647.473-55.395c2.694 1.14 4.772-1.066 2.8 3.786 6.701-.769 17.267-1.917 24.442 2.052-7.69-3.974 6.076-3.002 10.056-1.71-5.731-7.295 11.712.255 23.073-3.53-.753-2.234-9.272.326-8.601-2.869-3.855-.734-2.847 1.782-5.808 1.752 2.237-5.684-18.605 7.889-23.041-.228-2.58.67-.272 1.668-.024 2.784-3.09.108-4.628-.742-4.353-2.827.222 4.177-4.383.791-8.648 2.698-3.077-1.423 1.049-2.217-1.377-4.607-4.384.93-1.815 1.513-.023 2.783-4.383.653-2.682-2.531-7.193-1.88.248 1.116-.272 1.667-1.432 1.795l.129.001Z"/><path d="M647.489-57.204c-2.06-.02-4.539 3.852-4.377-.043 4.26-1.35-3.341-.73-1.432 1.795-1.928-.298-2.302-1.693-4.361-1.853.91-.965 3.355-.94 2.856-2.755-2.067.815-5.541.64-4.409 3.714-3.838-2.822-1.405-1.266-5.76-3.815-1.676.262 3.176 4.903-2.847 1.781-4.521 1.765 4.224 2.826 5.76 3.815-.524 1.109-2.595 2.34-2.84.947-2.977 1.919 1.919 1.41 5.784 1.031.79-2.08-2.692-1.28-2.808-2.811.398-1.388 7.59.632 8.609 1.894-.526 1.248-2.575-.025-2.824-1.002-5.687 2.727 7.948 3.976 10.025 1.909-2.04-2.247-3.075-1.7-1.376-4.607ZM1132.21-46.835c3.88-1.632-3.36 1.22-2.82-1.837-12.76 2.1-10.98 4.484-1.42.96 2.06-.536 3.44 3.653 4.37 1.017l-.13-.14ZM1989.63-38.342c1.15 1.682 1.55-.541 1.43-1.795 1.16.568 2.31.997 4.37 1.018-.77-.704-1.53-1.547-1.39-2.798-3.09-.587-4.66 2.599-4.37-1.017-2.57-.026-3.1 1.082-5.8.916 1.79 1.828 6.96-1.322 5.76 3.816v-.14ZM-4.273-59.067c2.449-.393 13.272-1.539 20.12-4.394-8.756.192-14.95 1.94-20.12 4.394ZM1162.51-52.102c-.3 4.868 11.72-.441 18.65 1.994-3.05-5.18-10.05.457-18.65-1.994ZM2014.14-43.666c-1.95 2.346-15.7-.99-10.02-2.883-1.79-1.966-8.62-.642-10.02-2.883-1.67.54 1.77 4.054-5.81 2.726 3.45 2.54 4.24 1.016 10.02 1.909-.39 1.248-3.61.799-5.8.916 8.73 3.427 19.43 1.446 31.64 3.098-4.33-5.193-7.95-2.724-18.61-5.752 1.64 2.939 4.89.327 8.6 2.869ZM956.833-56.923c.778-.689 1.557-1.516 1.439-2.77-4.513.93-5.664.083-5.792-.057-.633-1.26-6.303-.62-7.193-1.88.381.56 2.774-8.324.024-2.784-1.284-.43-2.568-.86-2.817-1.838-1.81.957-1.447 3.605 2.793 4.621-.662 2.081-7.601.62-8.625-.085.91-.965 3.355-.941 2.856-2.756-3.853-1.012-8.878-.505-11.472 1.696 1.664 1.13 3.727.733 5.801-.917 1.281.709 2.174 1.692 2.808 2.812-14.438 2.362-26.532 1.546-41.721 1.396 2.317.023 3.377-3.585.015-1.81-2.069 1.094-8.286 5.486-7.217.904-2.576.252-6.712 2.16-14.44 2.64 10.774 4.56 32.189-.655 41.682 3.197 3.88-2.05 3.49-1.636 8.633-.89 13.627 2.224 43.277-2.633 50.33.5-.867-3.906-11.327-.113-17.233-1.98h.129ZM668.993-57.965c.686-4.865-9.79.738-10.024-1.909-3.116 3.031 6.564.065 10.024 1.909ZM725.171-63.811c-1.674.122-.78.966-.008.974-.267 1.11-2.582.81-4.385.93-2.47 2.76 11.851-.856 12.993 1.104 1.416.014-2.925-4.205-7.177-3.83-1.064 4.027 2.838-.667 2.817 1.838-.148 2.226-4.764.092-4.369-1.017h.129ZM847.449-61.626c-9.495-3.573-37.96-1.907-53.283-1.502 18.386 2.688 37.207-.327 53.283 1.502ZM666.232-66.204c-1.702 3.323 17.233 1.98 23.026 2.037-9.375-2.737-16.091-.16-23.026-2.037ZM1231.58-60.604c-3.86-.038-2.95-1.56-5.79-.058 13.36 2.638 53.19-3.37 67.58.67-.01 1.53 8.12-1.45 4.4-2.74 3.34.45 11.82 2.065 17.25.17-18.63-4.916-52.93 2.677-63.32-2.436.64 1.12 1.79 1.966 4.36 1.853-5.95 3.977-14.15-1.254-17.26 1.638-3.35-.312-.87-4.323-5.76-3.815 1.78 2.523-1.56 1.933-1.46 4.579v.139ZM1004.27-63.83l.01-1.81c-2.58.67-.27 1.668-.02 2.784 1.15.15 1.42-.404 1.42-.96 2.71-.113 14.16.697 10.05-.875-4.12-.04-9.39-.65-11.46.86ZM1037.36-65.312c3.71 2.96 15.95 2.385 18.67.185 2.55 2.252 6.16 1.592 11.45 1.088-2.8-4.482-8.12.337-8.61-2.87-11.34 1.698-13.4 2.373-21.64 1.596l.13.001Z"/><path d="M1100.69-64.684c.01-.835-1.79-.714-2.82-1.003.01-.835 1.81-.678 2.84-.946-12.59-2.49-21.9 1.453-35.91-.356 1.27 1.683 5.78 1.171 4.33 4.636 2.59-.81 2.35-3.317 5.83-3.7.63 2.094 2.18.718 7.18 2.855-.25-.698-1.4-.988-1.4-1.823 4.23 2.686 6.83-.629 20.08.199l-.13.138ZM296.557-71.815c1.533 1.407 7.845.913 10.056-1.71 1.666.852-.924 2.636 5.777 1.867.007-.835-1.796-.714-2.824-1.002 18.816-2.459 26.769.96 40.306-1.41-21.994-2.306-31.537-.313-53.163-.527 2.565 1.139 10.793 2.473-.023 2.783l-.129-.001ZM529.552-70.342c-4.735-3.248-16.858-.724-23.018-3.012-1.42.543-1.562 2.073-4.392 1.766 6.158 2.566 10.421.8 17.225 2.954-1.774-3.218 6.329-2.442 10.056-1.71l.129.002ZM1187.05-62.02c1.68-.122.78-.966.01-.974.41-2.362 2.44 1.277 5.79.057-.76-.703-1.53-1.546-1.39-2.797-1.29.683-3.23.942-5.8.917l-.02 1.81c1.29-.127 1.42.43 1.41.987ZM1164.03-64.057c-1.56 1.376 9.56-3.942 14.45-4.45-2.44-.58-10.53-2.331-18.65-1.994 1.15 1.403 4.62 1.438 7.2 1.88-1.69 1.236-.53 1.387-.03 2.784-4.5-1.019-5.4-.471-1.42.96.25.838-.52.83-1.43.96l-.12-.14ZM1044.59-68.024c4.53-2.46 18.28 1.016 17.28-2.612-3.75 1.493-14.02-1.253-17.28 2.612ZM1305.01-66.419c1.67-.122.78-.966.01-.974-.25-1.116.27-1.667 1.43-1.795-.1-3.341-4.78 1.901-4.37-1.018-1.29-.151-1.42.404-1.42.96l-.02 1.81c2.06.02 4.12-.098 4.37 1.017ZM1000.1-73.058c4.5.323-3.585-2.68 1.44-2.77-2.947-2.116-11.973-.396-17.245-1.144 1.535 1.128 1.271 1.96-1.431 1.795-1.051 2.495 2.816 1.837 2.8 3.786-1.024-.706-9.89-2.604-8.633.889 4.65-1.764 8.489.919 14.425-.832-.89-1.261-3.075-1.7-5.777-1.867 3.739-.659 9.023-1.302 14.421.143ZM1464.77-66.645c2.86-3.173-14.53-1.815-18.66-1.16 7.58 1.746 14.67.703 18.66 1.16ZM1110.81-72.935c-5.55 1.197-10.7 1.285-14.44 1.666-20.49 2.442 13.65-.143 21.63.214-4.89-.744-8.72-3.983-8.56-7.461 3.85 1.012 11.7 1.507 13.01-1.68-5.55 1.754-10.69.59-23.05.745.51 1.258 2.57 1.417 2.81 2.812-3.09.108-4.63-.742-4.35-2.827-5.66-.752-15.08 1.52-5.82 3.7-4.62-2.83 6.32-2.442 4.36 1.018 4.91-1.204 7.59.632 10.05-.875 2.71.027 1.01 3.072 4.35 2.827l.01-.14ZM1477.64-66.518c-.74-3.487-7.73 1.454-5.75-4.65-2.57-.304-2.97.806-1.43.96-7.86 1.175 1 3.629 7.18 3.83v-.14ZM935.349-73.7c-4.655 2.32 5.928-.775 4.368 1.018 1.17-1.38 4.517-1.347 4.409-3.714-2.845 1.503-1.803-.018-5.793-.057-.25-.838.522-.83 1.424-.96-.369-1.953-5.028.924-4.4 2.74 1.286.152 1.419-.404 1.424-.96 2.441.58.884 2.096-1.431 1.795l-.001.139ZM251.977-82.417c2.16 3.362 7.466.074 14.408 1.117-5.121-3.252-22.905-1.062-31.665-.314 4.76.326 14.786 2.095 17.257-.803ZM895.058-74.098c-.372-1.674 1.455-4.579-2.799-3.786 3.466 1.148-2.229 4.71-1.425.96-3.869.797.612 3.764 4.353 2.827l-.129-.001ZM981.463-77c-3.075-1.701-8.114.476-13.009.845.766.704 1.532 1.546 1.392 2.798 7.123-4.94 5.653 1.308 11.489-3.645l.128.002ZM1005.91-74.949c9.38 1.485 22.63 2.73 25.89-2.527 1.28.709 3.21 1.006 5.79 1.032-4.35-3.94-17.41 3.446-31.68 1.495ZM1443.16-68.669c1.43-2.073.79-2.497 4.42-4.55.36 2.51 2.94 1.7 5.8-.916.66-2.638-5.43 2.312-5.79-1.032-2.98 2.059-2.59 1.784-5.83 4.536-1.92-1.272-8.62-.92-8.64 1.724 1.16-.128 1.42-.96 2.84-.947 3.33 1.982 1.96-3.042 7.2 1.046v.14ZM368.615-83.071c-.248-1.116-1.411-.57-1.416-.014-8.222-2.03-17.019 3.033 1.416.014ZM1328.14-77.185c-27.92-.972-64.23-.219-93.47 1.858 23.54 1.903 32.42 1.991 44.54-.533-.93 3.61 9.03-1.86 12.99 1.938 1.06-3.47 23.32-2.275 27.31-2.513 1.8.017 5.55-.92 8.64-.89l-.01.14Z"/><path d="m1020.22-77.59-4.38-.044c2.16 2.944 8.63-1.028 10.03 1.074 2.2-.535-7.04-3.828-5.78-1.032l.13.001ZM1243.32-79c4.01-1.49 6.73-4.248 11.48-2.67.28-2.641-4.09-2.406-5.76-3.814-10.3 1.01-36.07 2.983-47.51 1.338.25.699 1.41.989 1.4 1.823-7.19-2.159-16.22-.16-23.05.746.25 1.116 2.57.861 4.37 1.018-1.43 2.074-6.58 1.883-11.47 1.696 1.03-.825 2.58-1.366 4.39-1.766-4.98-4.782-14.94 1.105-21.62-1.188-3.87.796 4.36 2.13-.03 3.757-1.92-.993-2.81-2.533-4.34-3.8-6.46 1.745-14.82 1.105-25.89 1.552 1.39 3.076-1.96 3.043-5.82 2.726.12 1.671 21.74 2.164 23.06-1.58 10.14 3.44 36.66 2.59 44.55-1.369 1.53 2.103-.26.833 4.36 1.853.37 2.37-5.54.64-4.41 3.714 8.51-.75 15.08-1.938 23.07-2.555 1.54-.124 10.27 2.746 14.42.143.12 0-11.06-1.92-13-1.103 9.7-4.498 15.95 1.271 25.89-1.553-.01.835-1.81.678-2.84.946 13.63 2.222 16.61-.114 31.67.314 2.58-.67-.9-.984-2.83-1.003-7.08-.07-15.18-.707-20.09.776Zm-35.92.619c-2.2 1.927-20.35 1.33-14.4-1.952.63 1.676 1.55-.402 2.84-.946-3.4 5.951 16.99.864 11.43 2.897l.13.001ZM1441.86-82.6c3.12-3.031-9.14.466-7.19-1.88-3.58-2.542-5.16 1.618-1.44 2.769-1.79-1.27-6.3-1.037-10.03-1.074 2.18 1.135 3.45 2.679 7.18 2.855-1.03.825-2.58 1.366-4.39 1.766.88 2.792 3.1-.805 5.79.057 2.29 3.641-6.18.217-5.81 2.726-3.22-.588 1.81-1.374-1.4-2.797-3.61 1.356-8.89 1.582-10.08 4.493 6.57.204 21.67-4.379 23.04 1.202 2.96-.249.42-4.032 4.41-3.714-.24-2.368-4.89-.327-5.8-.057-4.88-.884-.11-2.09-2.8-3.786 2.58.304 7.22-.903 5.78 1.867 1.45-4.162 8.79-3.671 14.43-1.667 1.18-2.076 4.79-2.458 4.43-5.523-1.95 1.79-6.2 2.165-8.66 3.672-.5-1.815.28-2.92 2.86-2.756 0-.835-1.8-.713-2.83-1.002 4.91-1.204 21.78-2.15 24.45 1.217 2.32-.256-1.27-1.683 1.43-1.796-4.48-2.828-20.72-.205-31.65-1.287-4.65 1.206 5.66.612 5.77 1.866-1.04 1.8-3.88 2.467-7.23 2.712l-.26.137ZM162.803-86.92c.764.983 9.403-.602 14.417.144-3.713-2.403-9.769-1.767-14.417-.143ZM744.114-81.16c.626 2.093 7.077.487 10.032 1.073-.766-.704-1.531-1.546-1.392-2.798-2.32.395-1.312 2.91-5.808 1.752-.25-.837.522-.83 1.424-.96-.749-2.652-2.2 1.37-4.384.93l.128.002ZM1473.46-73.936c1.52 2.103 9 .507 12.99 1.103.68-3.751-3.09.387-7.2-1.046.27-1.11 2.58-.81 4.38-.93-2.67-2.95-6.32 1.329-10.04.874l-.13-.001ZM126.905-89.084c.367 2.23 6.302.619 7.208.071 13.395-.702-6.556-1.039-7.208-.071Z"/><path d="M1264.84-80.596c2.73-3.73 20.06 2.008 23.07-3.53-2.7-.444-8.64 1.168-7.19-1.88-5.02-.745-5.55 1.337-10.05.875.37 2.23 6.3.62 7.21.071-3.64 3.583-13.65.422-14.42-.142-3.59-1.289-4.54 3.573-5.8.916-5.3 2.453 6.03 2.287 7.18 3.83v-.14Z"/><path d="M1312.36-82.909c-4.75-1.3-7.95-3.558-15.8-3.914-8.24-.36-18.68 1.624-7.23 2.712 2.7.305 6.17.061 10.04-.875 2.55 3.366 6.81 2.016 12.99 1.938v.14ZM1470.57-82.316c1.39 2.798 11.3 2.757 18.64 2.969 18.14.597 47.24.885 74.78 1.715-.64-.981-10.15-2.467-2.81-2.812-27.81.42-64.36-.36-90.61-1.872ZM1394.35-81.261c-2.72 1.643 3.22-.386 5.78 1.031-.75-2.095 2.72-1.226 2.86-2.755 3.62-1.635-6.32 1.329-8.64 1.724Z"/><path d="M1387.16-83.142c5.26 1.861 12.91-5.161 21.65-3.544-6.35 5.505 3.83 3.657 7.21.072-9.88-3.438-14.15-.836-27.28-1.245 3.07 1.98 2.93 3.509-1.45 4.579l-.13.138Z"/><path d="M1390.13-84.922c.8-3.332-19.79-3.676-12.98-1.938-.28 1.667-4.9.508-5.81 1.752 2.43 2.112 10.94.386 15.82 1.13-1.26-2.656-2.18-.995-5.78-1.03.68-4.587 5.4.47 8.62.085l.13.001ZM1582.82-82.178c.37 2.23 3.87-1.075 5.8-.917-1.02-.567-17.62-1.706-20.07-1.173-.67 3.612 15.84-.4 14.4 1.952l-.13.138ZM1365.67-85.164c1.16-.128 1.42.431 1.41.988 1.68-.123.78-.967.01-.974.91-1.244 3.1-1.64 5.81-1.752-2.04-2.108-10.04-.378-14.41-1.117 3.46 1.287-1.58 3.464 1.38 3.772 4.78-1.067-.74-3.07 7.24-2.713-.66.83-1.31 1.658-2.85 1.782.25 1.116 1.41.57 1.41.014ZM397.439-96.704c1.12 4.465 10.171-.178 12.985 1.938-2.548-3.087-7.854.2-12.985-1.938ZM572.677-55.161c11.18 2.337 29.337 1.682 41.698 1.387-4.353-2.827-18.672.65-23.026-2.038 12.506-2.242 26.362 3.324 33.105-2.455-7.236 3.13-18.131-2.407-20.096 1.61-4.737-3.109-16.461-1.972-24.433-3.026-4.141 2.465 1.369 5.442-7.248 4.522ZM1152.31-49.42c-12.2-3.46-20.32-1.314-35.89-3.139 2.94 2.952-8.12 1.172-2.85 2.756 8.1 1.054 23.69-.322 38.87.385l-.13-.002ZM1366.89-62.048c.11 2.09 6.05.478 8.62 1.06-3.32-2.956-7.82-4.253-14.39-2.926-1.18 2.076 11.19.11 5.77 1.866ZM292.274-82.853c-1.913-2.107-10.038-.378-14.408-1.117 11.954 2.067 2.171 1.97-7.224 1.738-1.427 1.238 20.319 2.428 21.633-.76l-.001.139Z"/></g><defs><filter id="b" x="-148.207" y="-123.92" width="2358.23" height="261.14" filterUnits="userSpaceOnUse" color-interpolation-filters="sRGB"><feFlood flood-opacity="0" result="BackgroundImageFix"/><feGaussianBlur in="BackgroundImageFix" stdDeviation="10"/><feComposite in2="SourceAlpha" operator="in" result="effect1_backgroundBlur_0_234"/><feBlend in="SourceGraphic" in2="effect1_backgroundBlur_0_234" result="shape"/></filter></defs></svg>