<svg width="78" height="79" fill="none" xmlns="http://www.w3.org/2000/svg"><g clip-path="url(#a)"><path d="M38.8 79 0 39.51 38.8 0l38.799 39.51L38.799 79ZM6.194 39.51 38.8 72.692 71.403 39.51 38.8 6.308 6.194 39.51Z" fill="#fff"/><g clip-path="url(#b)"><path d="M22.604 57.998h.48c.617 0 24.866-.074 25.143-.067.612-.069 1.371-.025 1.963-.069l-.06.014c.442-.061.888-.093 1.335-.097.362 0 1.183.085 1.553.088h1.887l2.672-.046c.423-.253.409-.754.409-1.102v-.92L58 54.69v.083-.37a.338.338 0 0 0-.037-.155.405.405 0 0 0-.107-.13.508.508 0 0 0-.16-.088.585.585 0 0 0-.19-.03c-1.362.017-2.657.155-4.415.23-1.682.068-3.532-.121-4.578-.084-.393-.029-.788-.041-1.183-.037.202.016.132.048-.025.048-1.099 0-23.829.113-24.936.14H21.402c-.393 0-.533.543-1.035.55 0 .542-.328.616-.336 1.253L20 57.989h1.918c.235.006.465.006.686.009Z" fill="#fff"/></g><path d="M44.574 26.374c.004.421-.067.84-.209 1.236.04.397.061.797.084 1.194l.02.145v.316h-3.978l.189-2.725a3.83 3.83 0 0 0 .022-.681v-.02l-.084-.253c.02-.104.041-.188.062-.293-.062-.04-.041-1.34 0-2.386h3.914c0 1.669-.02 2.965-.02 3.467ZM31.213 55.535a83.19 83.19 0 0 0 .075-1.06v-.198l.014-.114c.015-.152.031-.309.05-.468-.1-.601-.13-11.306-.155-12.164.012-.061.02-.12.032-.181-.02-.162-.039-.391-.052-.627 0-.28 0-6.812-.014-7.04.14-2.581.132-4.916.125-7.252 0-.454-.005-.917-.014-1.387-.01-.745-.021-1.487-.034-2.226-.454-.209-.801.03-1.199.046l-.58.025h-.242l-.165.013-1.317.102c-.137-.047-.325.389-.561.346v6.812h-.034v1.224c0 .187.019.373.056.556v.075c.03.186-.047 23.49-.047 23.49s.733.434 1.028.573c.198.085.405.144.618.177l.227.036.127.014.227.013c.32.018.682.03 1.11.039h.718c.003-.261.007-.54.007-.824ZM46.654 23.568a83.19 83.19 0 0 0-.048.644l-.027.414v.311c-.018.154-.034.31-.05.47.098.602.13 5.465.154 6.324l-.034.181c.02.16.039.391.053.627 0 .28 0 .538.015.758-.14 2.585-.134 17.03-.124 19.376v1.388c.01.742.022 1.487.034 2.225.454.209.801-.032 1.2-.047l.58-.023H48.816l1.314-.102c.136.047.325-.391.563-.346V43.08h.035v-1.224c0-.187-.019-.374-.057-.556a.57.57 0 0 1 0-.062c-.03-.186.045-17.65.045-17.65s-.733-.434-1.029-.572a2.61 2.61 0 0 0-.615-.18l-.227-.034c-.04 0-.07 0-.125-.015l-.227-.014a39.808 39.808 0 0 0-1.11-.037h-.718c-.007.268-.009.548-.011.832Z" fill="#fff"/><path d="M28.89 29.17c.011.206.011.413 0 .62v.733c.29 0 .556-.018.82-.027.263-.01.529 0 .842.01l-.1.014h.604c.142-.003.284.002.425.014-.082 0-.152-.043.02-.045.327.03 9.067.08 9.31.118l.227-.043h7.43-.082.368a.395.395 0 0 0 .398-.4c-.014-.874-.1-1.719-.17-2.74a.758.758 0 0 0-.748-.712h-2.913v.021a.873.873 0 0 0-.15 0h.023a.216.216 0 0 1-.068 0 .08.08 0 0 1-.025 0 .096.096 0 0 0-.039 0c-.1-.016-.956.045-.956.045-.259 0-.847.066-1.276.073l.016-.04c-.357.04-1.029.015-1.285.017-.588-.02-1.497-.097-2.282-.052h-9.992c-.052-.032-.286 1.081-.286 1.081a.692.692 0 0 1-.109.488s-.013 0-.02.016v.204c-.007.2.007.4.018.604ZM37.187 54.247s-.088.404-.093.475c-.015.238.02.477.102.701.078.227.27.166.484.175l2.452.096c.557.02 1.122.095 1.329-.577.093-.3.061-.611.131-.909.096-.397 0-.66-.056-1.058-.063-.68-.07-1.363-.019-2.043.057-1.43.07-.389.06-1.817 0-.851-.343-1.512-.52-2.325-.194-.872-1.413-1-2.133-.958-.88.047-1.264 1.505-1.44 2.123-.054.75-.065 1.505-.065 2.257 0 .402-.105 1.317-.125 1.755-.034.7-.068 1.401-.107 2.105Z" fill="#fff"/><path d="M37.834 26.67c-.022.29-.084.962-.104 1.255a5.14 5.14 0 0 0 .104 1.067l-.022-.043c.011.105.011.21 0 .316h-3.633c.04-.797.104-1.76.06-2.66-.083-1.423-.208-2.47-.226-3.578a.398.398 0 0 1 .397-.4h.293c.273 0 .627.023 1.067.023h.922c.355 0 .836-.022 1.088.314l.04 2.177.023 1.485-.009.043Z" fill="#fff"/></g><defs><clipPath id="a"><path fill="#fff" d="M0 0h77.599v79H0z"/></clipPath><clipPath id="b"><path fill="#fff" transform="rotate(90 2 56)" d="M0 0h4v38H0z"/></clipPath></defs></svg>