<svg width="121" height="121" fill="none" xmlns="http://www.w3.org/2000/svg"><g clip-path="url(#a)" fill="#DCE1E1"><path d="M60.495 121 0 60.495 60.495 0 121 60.495 60.495 121ZM9.133 60.495l51.362 51.372 51.372-51.372L60.495 9.133 9.133 60.495Z"/><path d="M67.541 82.034a53.104 53.104 0 0 1-5.41 5.45 4.73 4.73 0 0 1-3.243.928 2.225 2.225 0 0 1-1.617-.819 13.76 13.76 0 0 0-1.936-1.826c-1.867-1.527-4.093-3.354-4.202-6.677h-5.1c-.08 3.992-.07 7.445 3.543 9.611.918.54 5.709 4.891 5.709 4.891 1.427 1.457 2.914 2.994 4.451 4.322h.52A503.47 503.47 0 0 0 72.83 85.987a8.882 8.882 0 0 0 2.995-7.287c-.23-3.683-.26-7.515-.29-10.899V63.81c-.1-5.82-.1-5.82-5.729-5.89a6.843 6.843 0 0 0-.768 0v.47c.14 6.847.1 13.704 0 19.503a6.847 6.847 0 0 1-1.498 4.142Z"/><path d="M80.447 72.432c0 .689 0 1.268.05 1.817.519-.1.998-.2 1.567-.28 1.876-.319 3.992-.678 5.2-1.626a66.567 66.567 0 0 0 5.34-4.831c1.667-1.677 3.294-3.424 4.74-4.99l1.997-2.097a.56.56 0 0 0-.07-.649c-1.287-1.457-2.914-2.994-4.352-4.441l-1.706-1.677c-.5-.499-.998-.998-1.507-1.457l-.18-.16a40.306 40.306 0 0 1-3.304-3.453 6.063 6.063 0 0 0-.918-.719 7.656 7.656 0 0 0-3.174-1.268c-.48-.08-.998-.15-1.198-.16l-1.557-.06-2.176-.069c-2.924-.05-5.879-.14-8.833-.23l-2.056-.06-4.102-.11H63.13c-3.284-.1-5.44 0-5.8.33a.538.538 0 0 0-.069.14 4.863 4.863 0 0 0-.37 2.106c0 .649.12 1.337.19 1.996s.16 1.397.2 1.996c.146.186.314.353.499.5h.769c3.792.09 8.084.189 12.296.189 3.064 0 5.8-.05 8.354-.16h.4c3.673 0 5.649 2.236 7.236 3.993.574.688 1.212 1.32 1.906 1.886a2.334 2.334 0 0 1 .819 1.757 2.166 2.166 0 0 1-.729 1.936 30.23 30.23 0 0 0-1.577 1.777c-.649.738-1.178 1.357-1.727 1.906a7.176 7.176 0 0 1-3.683 2.216c-.5.028-.982.19-1.397.469a5.19 5.19 0 0 0 0 1.557v1.926ZM32.269 50.255c-.51.508-6.708 5.699-7.895 6.727-2.526 2.146-2.685 2.794-2.695 2.894 0 1.088 1.996 2.875 3.383 4.172a50.31 50.31 0 0 1 1.817 1.727s3.992 3.593 4.88 4.661c2.416 2.895 5.3 4.052 9.373 3.853 2.096-.1 4.332-.14 6.986-.14H60.036c1.108 0 3.413 0 3.763-.31.349-.309.319-2.585.319-4.55v-.67H50.235c-3.294 0-5.99 0-8.345.17-3.992.12-6.158-2.136-7.855-3.992-.457-.52-.94-1.016-1.447-1.487a2.685 2.685 0 0 1-.779-1.917 2.315 2.315 0 0 1 .63-1.806c2.375-1.927 4.38-4.132 6.786-5.929a4.99 4.99 0 0 1 1.817-.39c0-1.856-.06-3.762-.17-5.619-4.401.42-5.51-.479-8.603 2.605Z"/><path d="M73.72 39.854c-.24-2.176-.46-4.232-1.378-5.56a25.155 25.155 0 0 0-5.579-5.16c-1.148-.868-2.246-1.706-3.284-2.604-2.136-1.877-3.992-3.484-4.511-3.484-.11 0-.34.22-.59.48-.438.428-.927.997-1.546 1.766l-4.522 5.23c-2.255 2.605-4.212 4.87-6.058 7.156a4.082 4.082 0 0 0-.868 2.246v3.294s.578 9.921.599 14.732c0 5.988 0 5.988 5.07 5.988h.818c.186.014.373.014.56 0v-.499c0-2.914-.06-5.839-.08-8.683v-8.983l.07-.31c.007-.962.08-1.922.219-2.874v-.529c0-.39 0-.659.08-.918a8.623 8.623 0 0 1 2.814-4.801l.1-.1c.49-.489.998-.998 1.497-1.417a27.687 27.687 0 0 0 2.106-2.076l.25-.23c.342-.248.755-.38 1.178-.38a3.314 3.314 0 0 1 1.846.69l.908.688c2.106 1.587 4.701 3.544 4.432 7.536l.06.1c1.936 0 3.912 0 5.839-.13h.11c-.06-.39-.1-.779-.14-1.168Z"/></g><defs><clipPath id="a"><path fill="#fff" d="M0 0h121v121H0z"/></clipPath></defs></svg>