<svg width="51" height="50" fill="none" xmlns="http://www.w3.org/2000/svg"><path d="M25.5 3c-12.15 0-22 9.85-22 22s9.85 22 22 22 22-9.85 22-22-9.85-22-22-22Zm1.53 8.787a.676.676 0 0 1 .269.006l5.392 1.076a2.177 2.177 0 0 1 1.662-1.076 2.2 2.2 0 1 1-1.953 2.424l-4.707-.99-1.428 6.863a15.647 15.647 0 0 1 8.471 2.707 3.225 3.225 0 0 1 2.106-.893A3.219 3.219 0 0 1 40.172 25a3.211 3.211 0 0 1-1.778 2.926c.022.322.022.646 0 .969 0 4.933-5.742 8.935-12.824 8.935s-12.824-4.008-12.824-8.935a7.117 7.117 0 0 1 0-.97 3.095 3.095 0 0 1-.863-.58 3.208 3.208 0 0 1-.143-4.538 3.208 3.208 0 0 1 4.54-.143 15.758 15.758 0 0 1 8.58-2.707l1.624-7.633v-.011a.682.682 0 0 1 .545-.526ZM20.372 25a2.2 2.2 0 1 0 0 4.401 2.2 2.2 0 0 0 0-4.401Zm10.19 0a2.202 2.202 0 1 0 .001 4.404A2.202 2.202 0 0 0 30.562 25Zm-10.024 7.28a.593.593 0 0 0-.459.972 8.45 8.45 0 0 0 5.438 1.695 8.445 8.445 0 0 0 5.435-1.695v.088a.618.618 0 0 0 .012-.87.62.62 0 0 0-.871-.011 7.247 7.247 0 0 1-4.6 1.34 7.188 7.188 0 0 1-4.576-1.385.603.603 0 0 0-.38-.135Z" fill="#fff"/></svg>