<svg width="0" height="0" class="hidden">
    <symbol fill="none" xmlns="http://www.w3.org/2000/svg" viewBox="0 0 51 50" id="vk">
        <g clip-path="url(#a)">
            <path d="M50.23 36.892c-2.042-3.592-7.302-7.908-9.473-9.787-.595-.514-.658-1.404-.117-1.972 4.144-4.353 7.459-9.355 8.6-12.377.503-1.335-.54-2.746-2.007-2.746h-4.265c-1.406 0-2.228.493-2.62 1.279-3.445 6.898-6.4 9.884-8.467 11.629-1.158.977-2.964.168-2.964-1.32v-9.197c0-1.274-1.066-2.304-2.38-2.304l-7.791-.087c-.981 0-1.541 1.085-.953 1.846l1.287 1.805c.484.625.745 1.386.745 2.167l-.007 8.128c0 1.414-1.753 2.105-2.794 1.114-3.522-3.352-6.577-10.197-7.677-13.47-.318-.948-1.226-1.588-2.256-1.59l-4.2-.01c-1.577 0-2.73 1.46-2.3 2.931 3.838 13.17 11.714 25.7 25.75 27.058 1.383.133 2.576-.955 2.576-2.303v-4.272c0-1.225.983-2.278 2.247-2.309h.133c3.712 0 7.87 5.28 9.324 7.75.419.712 1.2 1.145 2.046 1.145h5.65c1.65 0 2.708-1.71 1.913-3.108Z" fill="#fff"></path>
        </g>
        <defs>
            <clipPath id="a">
                <path fill="#fff" transform="translate(.5)" d="M0 0h50v50H0z"></path>
            </clipPath>
        </defs>
    </symbol>
    <symbol fill="none" xmlns="http://www.w3.org/2000/svg" viewBox="0 0 51 50" id="twitch">
        <path d="M12.81 2 4.5 10.23v29.63h9.915V48l8.232-8.14h6.921l14.479-14.814V2H12.81Zm1.605 4.057h25.696v17.665l-6.337 6.436h-6.512l-6.424 6.382v-6.382h-6.423V6.057Zm9.636 6.484v9.574h3.211v-9.574h-3.21Zm8.03 0v9.574h3.21v-9.574h-3.21Z" fill="#fff"></path>
    </symbol>
    <symbol fill="none" xmlns="http://www.w3.org/2000/svg" viewBox="0 0 51 50" id="twitter">
        <g clip-path="url(#a)">
            <path d="M50.165 10.783a1.25 1.25 0 0 0-1.352-.237l-.195.083c-.166.071-.331.142-.498.212a9.497 9.497 0 0 0 1.135-2.29 1.067 1.067 0 0 0-.404-1.205 1.258 1.258 0 0 0-1.351-.074c-1.359.77-2.663 1.325-4.012 1.711C41.452 7.14 38.68 6 35.619 6c-6.246 0-11.31 4.726-11.31 10.556v.555l-1.189-.089C11.546 15.744 8.25 8.478 8.114 8.164c-.222-.522-.71-.903-1.3-1.017a1.864 1.864 0 0 0-1.624.452c-.236.221-2.309 2.268-2.309 6.179 0 2.786 1.331 5.046 3.054 6.804a10.842 10.842 0 0 1-1.282-.836 1.892 1.892 0 0 0-1.987-.232c-.65.31-1.033.958-.968 1.637.023.235.53 4.681 6.033 8.039l-1.003.17c-.608.103-1.117.493-1.343 1.031A1.578 1.578 0 0 0 5.62 32c.125.157 2.45 2.978 7.498 4.6a36.575 36.575 0 0 1-10.832 1.622c-.7 0-1.337.382-1.626.978-.29.596-.18 1.294.282 1.786C1.134 41.19 5.78 46 17.762 46c19.896 0 29.166-17.239 29.166-28.889v-.555c0-.165-.019-.326-.026-.488 2.49-2.247 3.428-3.932 3.473-4.016a1.056 1.056 0 0 0-.21-1.269Z" fill="#fff"></path>
        </g>
        <defs>
            <clipPath id="a">
                <path fill="#fff" transform="translate(.5)" d="M0 0h50v50H0z"></path>
            </clipPath>
        </defs>
    </symbol>
    <symbol fill="none" xmlns="http://www.w3.org/2000/svg" viewBox="0 0 51 50" id="reddit">
        <path d="M25.5 3c-12.15 0-22 9.85-22 22s9.85 22 22 22 22-9.85 22-22-9.85-22-22-22Zm1.53 8.787a.676.676 0 0 1 .269.006l5.392 1.076a2.177 2.177 0 0 1 1.662-1.076 2.2 2.2 0 1 1-1.953 2.424l-4.707-.99-1.428 6.863a15.647 15.647 0 0 1 8.471 2.707 3.225 3.225 0 0 1 2.106-.893A3.219 3.219 0 0 1 40.172 25a3.211 3.211 0 0 1-1.778 2.926c.022.322.022.646 0 .969 0 4.933-5.742 8.935-12.824 8.935s-12.824-4.008-12.824-8.935a7.117 7.117 0 0 1 0-.97 3.095 3.095 0 0 1-.863-.58 3.208 3.208 0 0 1-.143-4.538 3.208 3.208 0 0 1 4.54-.143 15.758 15.758 0 0 1 8.58-2.707l1.624-7.633v-.011a.682.682 0 0 1 .545-.526ZM20.372 25a2.2 2.2 0 1 0 0 4.401 2.2 2.2 0 0 0 0-4.401Zm10.19 0a2.202 2.202 0 1 0 .001 4.404A2.202 2.202 0 0 0 30.562 25Zm-10.024 7.28a.593.593 0 0 0-.459.972 8.45 8.45 0 0 0 5.438 1.695 8.445 8.445 0 0 0 5.435-1.695v.088a.618.618 0 0 0 .012-.87.62.62 0 0 0-.871-.011 7.247 7.247 0 0 1-4.6 1.34 7.188 7.188 0 0 1-4.576-1.385.603.603 0 0 0-.38-.135Z" fill="#fff"></path>
    </symbol>
    <symbol fill="none" xmlns="http://www.w3.org/2000/svg" viewBox="0 0 121 121" id="ico-2">
        <g clip-path="url(#a)" fill="#DCE1E1">
            <path d="M60.495 121 0 60.495 60.495 0 121 60.495 60.495 121ZM9.133 60.495l51.362 51.372 51.372-51.372L60.495 9.133 9.133 60.495Z"></path>
            <path d="M67.541 82.034a53.104 53.104 0 0 1-5.41 5.45 4.73 4.73 0 0 1-3.243.928 2.225 2.225 0 0 1-1.617-.819 13.76 13.76 0 0 0-1.936-1.826c-1.867-1.527-4.093-3.354-4.202-6.677h-5.1c-.08 3.992-.07 7.445 3.543 9.611.918.54 5.709 4.891 5.709 4.891 1.427 1.457 2.914 2.994 4.451 4.322h.52A503.47 503.47 0 0 0 72.83 85.987a8.882 8.882 0 0 0 2.995-7.287c-.23-3.683-.26-7.515-.29-10.899V63.81c-.1-5.82-.1-5.82-5.729-5.89a6.843 6.843 0 0 0-.768 0v.47c.14 6.847.1 13.704 0 19.503a6.847 6.847 0 0 1-1.498 4.142Z"></path>
            <path d="M80.447 72.432c0 .689 0 1.268.05 1.817.519-.1.998-.2 1.567-.28 1.876-.319 3.992-.678 5.2-1.626a66.567 66.567 0 0 0 5.34-4.831c1.667-1.677 3.294-3.424 4.74-4.99l1.997-2.097a.56.56 0 0 0-.07-.649c-1.287-1.457-2.914-2.994-4.352-4.441l-1.706-1.677c-.5-.499-.998-.998-1.507-1.457l-.18-.16a40.306 40.306 0 0 1-3.304-3.453 6.063 6.063 0 0 0-.918-.719 7.656 7.656 0 0 0-3.174-1.268c-.48-.08-.998-.15-1.198-.16l-1.557-.06-2.176-.069c-2.924-.05-5.879-.14-8.833-.23l-2.056-.06-4.102-.11H63.13c-3.284-.1-5.44 0-5.8.33a.538.538 0 0 0-.069.14 4.863 4.863 0 0 0-.37 2.106c0 .649.12 1.337.19 1.996s.16 1.397.2 1.996c.146.186.314.353.499.5h.769c3.792.09 8.084.189 12.296.189 3.064 0 5.8-.05 8.354-.16h.4c3.673 0 5.649 2.236 7.236 3.993.574.688 1.212 1.32 1.906 1.886a2.334 2.334 0 0 1 .819 1.757 2.166 2.166 0 0 1-.729 1.936 30.23 30.23 0 0 0-1.577 1.777c-.649.738-1.178 1.357-1.727 1.906a7.176 7.176 0 0 1-3.683 2.216c-.5.028-.982.19-1.397.469a5.19 5.19 0 0 0 0 1.557v1.926ZM32.269 50.255c-.51.508-6.708 5.699-7.895 6.727-2.526 2.146-2.685 2.794-2.695 2.894 0 1.088 1.996 2.875 3.383 4.172a50.31 50.31 0 0 1 1.817 1.727s3.992 3.593 4.88 4.661c2.416 2.895 5.3 4.052 9.373 3.853 2.096-.1 4.332-.14 6.986-.14H60.036c1.108 0 3.413 0 3.763-.31.349-.309.319-2.585.319-4.55v-.67H50.235c-3.294 0-5.99 0-8.345.17-3.992.12-6.158-2.136-7.855-3.992-.457-.52-.94-1.016-1.447-1.487a2.685 2.685 0 0 1-.779-1.917 2.315 2.315 0 0 1 .63-1.806c2.375-1.927 4.38-4.132 6.786-5.929a4.99 4.99 0 0 1 1.817-.39c0-1.856-.06-3.762-.17-5.619-4.401.42-5.51-.479-8.603 2.605Z"></path>
            <path d="M73.72 39.854c-.24-2.176-.46-4.232-1.378-5.56a25.155 25.155 0 0 0-5.579-5.16c-1.148-.868-2.246-1.706-3.284-2.604-2.136-1.877-3.992-3.484-4.511-3.484-.11 0-.34.22-.59.48-.438.428-.927.997-1.546 1.766l-4.522 5.23c-2.255 2.605-4.212 4.87-6.058 7.156a4.082 4.082 0 0 0-.868 2.246v3.294s.578 9.921.599 14.732c0 5.988 0 5.988 5.07 5.988h.818c.186.014.373.014.56 0v-.499c0-2.914-.06-5.839-.08-8.683v-8.983l.07-.31c.007-.962.08-1.922.219-2.874v-.529c0-.39 0-.659.08-.918a8.623 8.623 0 0 1 2.814-4.801l.1-.1c.49-.489.998-.998 1.497-1.417a27.687 27.687 0 0 0 2.106-2.076l.25-.23c.342-.248.755-.38 1.178-.38a3.314 3.314 0 0 1 1.846.69l.908.688c2.106 1.587 4.701 3.544 4.432 7.536l.06.1c1.936 0 3.912 0 5.839-.13h.11c-.06-.39-.1-.779-.14-1.168Z"></path>
        </g>
        <defs>
            <clipPath id="a">
                <path fill="#fff" d="M0 0h121v121H0z"></path>
            </clipPath>
        </defs>
    </symbol>
    <symbol fill="none" xmlns="http://www.w3.org/2000/svg" viewBox="0 0 78 79" id="ico-1">
        <g clip-path="url(#a)">
            <path d="M38.8 79 0 39.51 38.8 0l38.799 39.51L38.799 79ZM6.194 39.51 38.8 72.692 71.403 39.51 38.8 6.308 6.194 39.51Z" fill="#fff"></path>
            <g clip-path="url(#b)">
                <path d="M22.604 57.998h.48c.617 0 24.866-.074 25.143-.067.612-.069 1.371-.025 1.963-.069l-.06.014c.442-.061.888-.093 1.335-.097.362 0 1.183.085 1.553.088h1.887l2.672-.046c.423-.253.409-.754.409-1.102v-.92L58 54.69v.083-.37a.338.338 0 0 0-.037-.155.405.405 0 0 0-.107-.13.508.508 0 0 0-.16-.088.585.585 0 0 0-.19-.03c-1.362.017-2.657.155-4.415.23-1.682.068-3.532-.121-4.578-.084-.393-.029-.788-.041-1.183-.037.202.016.132.048-.025.048-1.099 0-23.829.113-24.936.14H21.402c-.393 0-.533.543-1.035.55 0 .542-.328.616-.336 1.253L20 57.989h1.918c.235.006.465.006.686.009Z" fill="#fff"></path>
            </g>
            <path d="M44.574 26.374c.004.421-.067.84-.209 1.236.04.397.061.797.084 1.194l.02.145v.316h-3.978l.189-2.725a3.83 3.83 0 0 0 .022-.681v-.02l-.084-.253c.02-.104.041-.188.062-.293-.062-.04-.041-1.34 0-2.386h3.914c0 1.669-.02 2.965-.02 3.467ZM31.213 55.535a83.19 83.19 0 0 0 .075-1.06v-.198l.014-.114c.015-.152.031-.309.05-.468-.1-.601-.13-11.306-.155-12.164.012-.061.02-.12.032-.181-.02-.162-.039-.391-.052-.627 0-.28 0-6.812-.014-7.04.14-2.581.132-4.916.125-7.252 0-.454-.005-.917-.014-1.387-.01-.745-.021-1.487-.034-2.226-.454-.209-.801.03-1.199.046l-.58.025h-.242l-.165.013-1.317.102c-.137-.047-.325.389-.561.346v6.812h-.034v1.224c0 .187.019.373.056.556v.075c.03.186-.047 23.49-.047 23.49s.733.434 1.028.573c.198.085.405.144.618.177l.227.036.127.014.227.013c.32.018.682.03 1.11.039h.718c.003-.261.007-.54.007-.824ZM46.654 23.568a83.19 83.19 0 0 0-.048.644l-.027.414v.311c-.018.154-.034.31-.05.47.098.602.13 5.465.154 6.324l-.034.181c.02.16.039.391.053.627 0 .28 0 .538.015.758-.14 2.585-.134 17.03-.124 19.376v1.388c.01.742.022 1.487.034 2.225.454.209.801-.032 1.2-.047l.58-.023H48.816l1.314-.102c.136.047.325-.391.563-.346V43.08h.035v-1.224c0-.187-.019-.374-.057-.556a.57.57 0 0 1 0-.062c-.03-.186.045-17.65.045-17.65s-.733-.434-1.029-.572a2.61 2.61 0 0 0-.615-.18l-.227-.034c-.04 0-.07 0-.125-.015l-.227-.014a39.808 39.808 0 0 0-1.11-.037h-.718c-.007.268-.009.548-.011.832Z" fill="#fff"></path>
            <path d="M28.89 29.17c.011.206.011.413 0 .62v.733c.29 0 .556-.018.82-.027.263-.01.529 0 .842.01l-.1.014h.604c.142-.003.284.002.425.014-.082 0-.152-.043.02-.045.327.03 9.067.08 9.31.118l.227-.043h7.43-.082.368a.395.395 0 0 0 .398-.4c-.014-.874-.1-1.719-.17-2.74a.758.758 0 0 0-.748-.712h-2.913v.021a.873.873 0 0 0-.15 0h.023a.216.216 0 0 1-.068 0 .08.08 0 0 1-.025 0 .096.096 0 0 0-.039 0c-.1-.016-.956.045-.956.045-.259 0-.847.066-1.276.073l.016-.04c-.357.04-1.029.015-1.285.017-.588-.02-1.497-.097-2.282-.052h-9.992c-.052-.032-.286 1.081-.286 1.081a.692.692 0 0 1-.109.488s-.013 0-.02.016v.204c-.007.2.007.4.018.604ZM37.187 54.247s-.088.404-.093.475c-.015.238.02.477.102.701.078.227.27.166.484.175l2.452.096c.557.02 1.122.095 1.329-.577.093-.3.061-.611.131-.909.096-.397 0-.66-.056-1.058-.063-.68-.07-1.363-.019-2.043.057-1.43.07-.389.06-1.817 0-.851-.343-1.512-.52-2.325-.194-.872-1.413-1-2.133-.958-.88.047-1.264 1.505-1.44 2.123-.054.75-.065 1.505-.065 2.257 0 .402-.105 1.317-.125 1.755-.034.7-.068 1.401-.107 2.105Z" fill="#fff"></path>
            <path d="M37.834 26.67c-.022.29-.084.962-.104 1.255a5.14 5.14 0 0 0 .104 1.067l-.022-.043c.011.105.011.21 0 .316h-3.633c.04-.797.104-1.76.06-2.66-.083-1.423-.208-2.47-.226-3.578a.398.398 0 0 1 .397-.4h.293c.273 0 .627.023 1.067.023h.922c.355 0 .836-.022 1.088.314l.04 2.177.023 1.485-.009.043Z" fill="#fff"></path>
        </g>
        <defs>
            <clipPath id="a">
                <path fill="#fff" d="M0 0h77.599v79H0z"></path>
            </clipPath>
            <clipPath id="b">
                <path fill="#fff" transform="rotate(90 2 56)" d="M0 0h4v38H0z"></path>
            </clipPath>
        </defs>
    </symbol>
    <symbol fill="none" xmlns="http://www.w3.org/2000/svg" viewBox="0 0 34 32" id="go-to-section">
        <path d="M.776 0v15.567L16.989 31.78l16.235-16.16V0H.776Zm19.477 20.555c-.678.668-1.67 1.756-2.488 2.66a.95.95 0 0 1-1.347 0l-.56-.592-2.822-2.822c-.194-.205-.42-.42-.658-.679l-.28-.312-1.077-1.078-.55-.581c-.775-.82-1.54-1.638-2.316-2.446l-.57-.603c-.14-.151-.28-.291-.41-.442-.13-.15-.636-.937-.636-.937a10.4 10.4 0 0 1-.215-1.077c.038-.61.038-1.222 0-1.832V5.645l.162-.194h1.077c.862-.065 1.831-.065 2.672-.065 1.077 0 1.928 0 2.747.14a4.89 4.89 0 0 1 1.799.938c.161.129.334.237.506.355-.14.162-.302.323-.485.507-.183.183-.312.312-.506.538-.194.226-.355.41-.42.41s-.172 0-.506-.248a2.725 2.725 0 0 0-1.606-.42h-.99l-.906.054a.819.819 0 0 0-.7.323.894.894 0 0 0-.248.69c.027.34.027.682 0 1.023a3.598 3.598 0 0 0 .862 3.048l.119.108c.721.646 1.476 1.38 2.294 2.155.819.775 1.82 1.842 2.661 2.725l.657.69.162.161 1.444 1.53.517-.517 2.316-2.37.215.01.162.151.226.216c1.314 1.314 1.314 1.314-.302 2.952Zm5.925-5.958-.075.065-.15.14-1.423 1.26-.7.636-.334.323a.905.905 0 0 1-1.174-.215l-.302-.302-1.325-1.336-.194-.204c-.71-.722-1.4-1.433-2.154-2.155l-.076-.075c.051-.067.109-.129.173-.184a5.87 5.87 0 0 1 1.314-1.152c.402.259.765.575 1.077.937l.259.259 1.411 1.41.614.626 1.444-1.196a3.437 3.437 0 0 0 .678-2.941 4.784 4.784 0 0 1 0-1.024.926.926 0 0 0-.215-.667 1.863 1.863 0 0 0-1.078-.615c-.979-.07-1.961-.07-2.94 0a2.65 2.65 0 0 0-1.498.722c-1.584 1.562-3.437 3.394-5.246 5.279-.044.046-.09.09-.14.13l-.205-.205c-1.508-1.541-1.508-1.541 0-3.135L14.996 9.9c.905-.915 1.929-1.96 2.866-3.016A3.415 3.415 0 0 1 20.63 5.71c2.38 0 4.556.086 6.614.183 0 0 .119.118.15.14v2.37s.12 2.467.216 2.855c.063.232.095.47.097.71a3.801 3.801 0 0 1-1.53 2.63Z" fill="#fff"></path>
    </symbol>
    <symbol fill="none" xmlns="http://www.w3.org/2000/svg" viewBox="0 0 51 50" id="facebook">
        <path d="M25.5 3c-12.13 0-22 9.931-22 22.138C3.5 36.214 11.633 45.39 22.2 47V30.673h-4.4c-.607 0-1.1-.495-1.1-1.107v-3.32c0-.613.493-1.108 1.1-1.108h4.4v-4.02c0-5.259 2.67-8.156 7.517-8.156 1.965 0 3.515.138 3.58.143.567.051 1.003.53 1.003 1.102v3.736c0 .612-.493 1.107-1.1 1.107H31a2.21 2.21 0 0 0-2.2 2.214v3.874h4.4c.316 0 .616.136.825.374.209.24.306.556.267.87l-.412 3.321c-.07.554-.538.97-1.093.97H28.8V47c10.567-1.61 18.7-10.786 18.7-21.862C47.5 12.931 37.63 3 25.5 3Z" fill="#fff"></path>
    </symbol>
    <symbol fill="none" xmlns="http://www.w3.org/2000/svg" viewBox="0 0 51 50" id="discord">
        <g clip-path="url(#a)">
            <path d="M43.57 10.103C39.245 6.617 32.4 6.027 32.107 6.005a1.079 1.079 0 0 0-1.074.638c-.017.025-.165.37-.33.905 2.86.485 6.376 1.458 9.557 3.435a1.09 1.09 0 0 1-.574 2.015 1.09 1.09 0 0 1-.573-.166C33.644 9.436 26.816 9.266 25.5 9.266c-1.316 0-8.148.17-13.613 3.566-.51.319-1.18.162-1.494-.348a1.09 1.09 0 0 1 .348-1.501c3.18-1.972 6.696-2.95 9.558-3.43-.166-.54-.315-.88-.327-.91a1.072 1.072 0 0 0-1.079-.638c-.293.022-7.137.612-11.523 4.145C5.08 12.27.5 24.666.5 35.383c0 .19.05.374.144.54 3.16 5.56 11.783 7.013 13.748 7.077h.035c.348 0 .675-.166.878-.446l1.988-2.738c-5.363-1.386-8.102-3.74-8.259-3.88a1.085 1.085 0 0 1-.093-1.535 1.087 1.087 0 0 1 1.533-.098c.063.06 5.107 4.344 15.026 4.344 9.935 0 14.98-4.302 15.03-4.344a1.087 1.087 0 0 1 1.436 1.632c-.157.14-2.896 2.495-8.259 3.881l1.987 2.738c.204.28.531.446.88.446h.033c1.966-.064 10.59-1.517 13.748-7.078.094-.165.145-.348.145-.54 0-10.716-4.581-23.111-6.93-25.279ZM18.436 31.03c-2.102 0-3.805-1.947-3.805-4.353 0-2.406 1.703-4.353 3.805-4.353 2.101 0 3.804 1.947 3.804 4.353 0 2.406-1.703 4.353-3.804 4.353Zm14.13 0c-2.102 0-3.804-1.947-3.804-4.353 0-2.406 1.702-4.353 3.804-4.353s3.804 1.947 3.804 4.353c0 2.406-1.702 4.353-3.804 4.353Z" fill="#fff"></path>
        </g>
        <defs>
            <clipPath id="a">
                <path fill="#fff" transform="translate(.5)" d="M0 0h50v50H0z"></path>
            </clipPath>
        </defs>
    </symbol>
    <symbol fill="none" xmlns="http://www.w3.org/2000/svg" viewBox="0 0 51 50" id="youtube">
        <g clip-path="url(#a)">
            <path d="M47.924 9.528c2.278 2.344 2.576 6.068 2.576 15.18 0 9.113-.298 12.837-2.576 15.18s-4.651 2.529-22.424 2.529-20.146-.186-22.424-2.529C.798 37.546.5 33.822.5 24.709c0-9.112.298-12.836 2.576-15.18C5.354 7.184 7.727 7 25.5 7s20.146.185 22.424 2.528ZM21.28 32.434l12.652-7.33-12.652-7.217v14.547Z" fill="#fff"></path>
        </g>
        <defs>
            <clipPath id="a">
                <path fill="#fff" transform="translate(.5)" d="M0 0h50v50H0z"></path>
            </clipPath>
        </defs>
    </symbol>
</svg>