<svg width="51" height="50" fill="none" xmlns="http://www.w3.org/2000/svg"><g clip-path="url(#a)"><path d="M50.165 10.783a1.25 1.25 0 0 0-1.352-.237l-.195.083c-.166.071-.331.142-.498.212a9.497 9.497 0 0 0 1.135-2.29 1.067 1.067 0 0 0-.404-1.205 1.258 1.258 0 0 0-1.351-.074c-1.359.77-2.663 1.325-4.012 1.711C41.452 7.14 38.68 6 35.619 6c-6.246 0-11.31 4.726-11.31 10.556v.555l-1.189-.089C11.546 15.744 8.25 8.478 8.114 8.164c-.222-.522-.71-.903-1.3-1.017a1.864 1.864 0 0 0-1.624.452c-.236.221-2.309 2.268-2.309 6.179 0 2.786 1.331 5.046 3.054 6.804a10.842 10.842 0 0 1-1.282-.836 1.892 1.892 0 0 0-1.987-.232c-.65.31-1.033.958-.968 1.637.023.235.53 4.681 6.033 8.039l-1.003.17c-.608.103-1.117.493-1.343 1.031A1.578 1.578 0 0 0 5.62 32c.125.157 2.45 2.978 7.498 4.6a36.575 36.575 0 0 1-10.832 1.622c-.7 0-1.337.382-1.626.978-.29.596-.18 1.294.282 1.786C1.134 41.19 5.78 46 17.762 46c19.896 0 29.166-17.239 29.166-28.889v-.555c0-.165-.019-.326-.026-.488 2.49-2.247 3.428-3.932 3.473-4.016a1.056 1.056 0 0 0-.21-1.269Z" fill="#fff"/></g><defs><clipPath id="a"><path fill="#fff" transform="translate(.5)" d="M0 0h50v50H0z"/></clipPath></defs></svg>