<svg width="51" height="50" fill="none" xmlns="http://www.w3.org/2000/svg"><g clip-path="url(#a)"><path d="M50.23 36.892c-2.042-3.592-7.302-7.908-9.473-9.787-.595-.514-.658-1.404-.117-1.972 4.144-4.353 7.459-9.355 8.6-12.377.503-1.335-.54-2.746-2.007-2.746h-4.265c-1.406 0-2.228.493-2.62 1.279-3.445 6.898-6.4 9.884-8.467 11.629-1.158.977-2.964.168-2.964-1.32v-9.197c0-1.274-1.066-2.304-2.38-2.304l-7.791-.087c-.981 0-1.541 1.085-.953 1.846l1.287 1.805c.484.625.745 1.386.745 2.167l-.007 8.128c0 1.414-1.753 2.105-2.794 1.114-3.522-3.352-6.577-10.197-7.677-13.47-.318-.948-1.226-1.588-2.256-1.59l-4.2-.01c-1.577 0-2.73 1.46-2.3 2.931 3.838 13.17 11.714 25.7 25.75 27.058 1.383.133 2.576-.955 2.576-2.303v-4.272c0-1.225.983-2.278 2.247-2.309h.133c3.712 0 7.87 5.28 9.324 7.75.419.712 1.2 1.145 2.046 1.145h5.65c1.65 0 2.708-1.71 1.913-3.108Z" fill="#fff"/></g><defs><clipPath id="a"><path fill="#fff" transform="translate(.5)" d="M0 0h50v50H0z"/></clipPath></defs></svg>